advent_pro_reg.ufo
<glyph name="quotedbl" format="1">
  <advance width="266"/>
  <unicode hex="0022"/>
  <outline>
    <contour>
      <point x="166" y="701" type="line"/>
      <point x="166" y="747.902"/>
      <point x="234" y="747.902"/>
      <point x="234" y="701" type="curve"/>
      <point x="220" y="586" type="line"/>
      <point x="180" y="586" type="line"/>
    </contour>
    <contour>
      <point x="31" y="701" type="line"/>
      <point x="31" y="747.902"/>
      <point x="99" y="747.902"/>
      <point x="99" y="701" type="curve"/>
      <point x="84" y="586" type="line"/>
      <point x="45" y="586" type="line"/>
    </contour>
  </outline>
</glyph>
<glyph name="dollar" format="1">
  <advance width="528"/>
  <unicode hex="0024"/>
  <outline>
    <component base="S"/>
    <contour>
      <point x="248" y="-113" type="line"/>
      <point x="248" y="815" type="line"/>
      <point x="304" y="815" type="line"/>
      <point x="304" y="-113" type="line"/>
    </contour>
  </outline>
</glyph>
<glyph name="percent" format="1">
  <advance width="711"/>
  <unicode hex="0025"/>
  <outline>
    <contour>
      <point x="48" y="0" type="line"/>
      <point x="585" y="698" type="line"/>
      <point x="649" y="698" type="line"/>
      <point x="115" y="0" type="line"/>
    </contour>
    <contour>
      <point x="175" y="712" type="curve" smooth="yes"/>
      <point x="255.017" y="712"/>
      <point x="320" y="647.583"/>
      <point x="320" y="566" type="curve" smooth="yes"/>
      <point x="320" y="485.983"/>
      <point x="255.017" y="421"/>
      <point x="175" y="421" type="curve" smooth="yes"/>
      <point x="94.3167" y="421"/>
      <point x="29" y="485.983"/>
      <point x="29" y="566" type="curve" smooth="yes"/>
      <point x="29" y="647.583"/>
      <point x="94.3167" y="712"/>
    </contour>
    <contour>
      <point x="175" y="661" type="curve" smooth="yes"/>
      <point x="123.367" y="661"/>
      <point x="80" y="617.633"/>
      <point x="80" y="566" type="curve" smooth="yes"/>
      <point x="80" y="515.933"/>
      <point x="123.367" y="472"/>
      <point x="175" y="472" type="curve" smooth="yes"/>
      <point x="225.967" y="472"/>
      <point x="269" y="515.933"/>
      <point x="269" y="566" type="curve" smooth="yes"/>
      <point x="269" y="617.633"/>
      <point x="225.967" y="661"/>
    </contour>
    <contour>
      <point x="534" y="276" type="curve" smooth="yes"/>
      <point x="614.917" y="276"/>
      <point x="679" y="211.017"/>
      <point x="679" y="131" type="curve" smooth="yes"/>
      <point x="679" y="50.9833"/>
      <point x="614.917" y="-14"/>
      <point x="534" y="-14" type="curve" smooth="yes"/>
      <point x="455.55" y="-14"/>
      <point x="390" y="50.9833"/>
      <point x="390" y="131" type="curve" smooth="yes"/>
      <point x="390" y="211.017"/>
      <point x="455.55" y="276"/>
    </contour>
    <contour>
      <point x="534" y="226" type="curve" smooth="yes"/>
      <point x="483.25" y="226"/>
      <point x="441" y="184.883"/>
      <point x="441" y="131" type="curve" smooth="yes"/>
      <point x="441" y="78.6833"/>
      <point x="483.25" y="37"/>
      <point x="534" y="37" type="curve" smooth="yes"/>
      <point x="587.883" y="37"/>
      <point x="629" y="78.6833"/>
      <point x="629" y="131" type="curve" smooth="yes"/>
      <point x="629" y="184.883"/>
      <point x="587.883" y="226"/>
    </contour>
  </outline>
</glyph>
<glyph name="ampersand" format="1">
  <advance width="527"/>
  <unicode hex="0026"/>
  <outline>
    <contour>
      <point x="378" y="651" type="line"/>
      <point x="241" y="651" type="line" smooth="yes"/>
      <point x="184.626" y="651"/>
      <point x="152" y="607.382"/>
      <point x="152" y="543" type="curve" smooth="yes"/>
      <point x="152" y="464.003"/>
      <point x="215.078" y="402"/>
      <point x="295" y="402" type="curve" smooth="yes"/>
      <point x="345" y="402" type="line"/>
      <point x="345" y="505" type="line"/>
      <point x="398" y="505" type="line"/>
      <point x="398" y="403" type="line"/>
      <point x="497" y="403" type="line"/>
      <point x="474" y="349" type="line"/>
      <point x="398" y="349" type="line"/>
      <point x="398" y="136" type="line" smooth="yes"/>
      <point x="398" y="84"/>
      <point x="422" y="50"/>
      <point x="466" y="34" type="curve"/>
      <point x="453" y="-9" type="line"/>
      <point x="407.667" y="4.33333"/>
      <point x="376.667" y="26"/>
      <point x="362" y="62" type="curve"/>
      <point x="322.044" y="14.0533"/>
      <point x="251.398" y="-6"/>
      <point x="207" y="-6" type="curve" smooth="yes"/>
      <point x="97.5677" y="-6"/>
      <point x="32.6942" y="45.8455"/>
      <point x="30" y="159" type="curve"/>
      <point x="30" y="254" type="line" smooth="yes"/>
      <point x="30" y="357.019"/>
      <point x="82.1906" y="396.681"/>
      <point x="154" y="402" type="curve"/>
      <point x="173" y="402" type="line"/>
      <point x="112.822" y="442.119"/>
      <point x="98.0617" y="504.767"/>
      <point x="96" y="546" type="curve" smooth="yes"/>
      <point x="91.977" y="636.518"/>
      <point x="144.752" y="702"/>
      <point x="238" y="702" type="curve" smooth="yes"/>
      <point x="403" y="702" type="line"/>
    </contour>
    <contour>
      <point x="345" y="349" type="line"/>
      <point x="184" y="349" type="line" smooth="yes"/>
      <point x="148.367" y="349"/>
      <point x="86" y="342.883"/>
      <point x="86" y="251" type="curve" smooth="yes"/>
      <point x="86" y="164" type="line" smooth="yes"/>
      <point x="86" y="86.6667"/>
      <point x="132.667" y="42"/>
      <point x="218" y="50" type="curve" smooth="yes"/>
      <point x="299.052" y="57.9075"/>
      <point x="345" y="105.924"/>
      <point x="345" y="176" type="curve" smooth="yes"/>
    </contour>
  </outline>
</glyph>
<glyph name="quotesingle" format="1">
  <advance width="266"/>
  <unicode hex="0027"/>
  <outline>
    <contour>
      <point x="99" y="702" type="line"/>
      <point x="99" y="748.431"/>
      <point x="166" y="748.431"/>
      <point x="166" y="702" type="curve"/>
      <point x="152" y="587" type="line"/>
      <point x="112" y="587" type="line"/>
    </contour>
  </outline>
</glyph>
<glyph name="parenright" format="1">
  <advance width="182"/>
  <unicode hex="0029"/>
  <outline>
    <contour>
      <point x="36" y="815" type="line"/>
      <point x="105.907" y="777.05"/>
      <point x="140" y="725.326"/>
      <point x="140" y="625" type="curve" smooth="yes"/>
      <point x="140" y="70" type="line" smooth="yes"/>
      <point x="140" y="-57.6829"/>
      <point x="87.1324" y="-81.3235"/>
      <point x="36" y="-119" type="curve"/>
      <point x="17" y="-81" type="line"/>
      <point x="62.3208" y="-49.0088"/>
      <point x="84" y="-0.945627"/>
      <point x="84" y="62" type="curve" smooth="yes"/>
      <point x="84" y="253.75"/>
      <point x="84" y="442.5"/>
      <point x="84" y="635" type="curve" smooth="yes"/>
      <point x="84" y="695.441"/>
      <point x="62.4283" y="745.933"/>
      <point x="17" y="778" type="curve"/>
    </contour>
  </outline>
</glyph>
<glyph name="comma" format="1">
  <advance width="266"/>
  <unicode hex="002C"/>
  <outline>
    <contour>
      <point x="98" y="-85" type="line"/>
      <point x="119.333" y="-58.3333"/>
      <point x="126.333" y="-31.3333"/>
      <point x="129" y="-10" type="curve"/>
      <point x="113" y="-7.3333"/>
      <point x="101" y="7"/>
      <point x="101" y="23" type="curve" smooth="yes"/>
      <point x="101" y="41.6667"/>
      <point x="115.333" y="56"/>
      <point x="134" y="56" type="curve" smooth="yes"/>
      <point x="152.667" y="56"/>
      <point x="166.667" y="43"/>
      <point x="168" y="23" type="curve"/>
      <point x="168" y="-39.7073"/>
      <point x="134.56" y="-79.8849"/>
      <point x="115" y="-97" type="curve"/>
    </contour>
  </outline>
</glyph>
<glyph name="hyphen" format="1">
  <advance width="391"/>
  <unicode hex="002D"/>
  <outline>
    <contour>
      <point x="34" y="355" type="line"/>
      <point x="34" y="413" type="line"/>
      <point x="353" y="413" type="line"/>
      <point x="353" y="355" type="line"/>
    </contour>
  </outline>
</glyph>
<glyph name="period" format="1">
  <advance width="136"/>
  <unicode hex="002E"/>
  <outline>
    <contour>
      <point x="68" y="57" type="curve" smooth="yes"/>
      <point x="86.6667" y="57"/>
      <point x="102" y="42.6667"/>
      <point x="102" y="24" type="curve" smooth="yes"/>
      <point x="102" y="5.33333"/>
      <point x="86.6667" y="-9"/>
      <point x="68" y="-9" type="curve" smooth="yes"/>
      <point x="50.6667" y="-9"/>
      <point x="35" y="5.33333"/>
      <point x="35" y="24" type="curve" smooth="yes"/>
      <point x="35" y="42.6667"/>
      <point x="50.6667" y="57"/>
    </contour>
  </outline>
</glyph>
<glyph name="five" format="1">
  <advance width="439"/>
  <unicode hex="0035"/>
  <outline>
    <contour>
      <point x="116" y="411" type="line"/>
      <point x="169" y="411" type="line" smooth="yes"/>
      <point x="300.633" y="411"/>
      <point x="411" y="343.6"/>
      <point x="411" y="198" type="curve" smooth="yes"/>
      <point x="411" y="95.9567"/>
      <point x="334.281" y="-12"/>
      <point x="201" y="-12" type="curve"/>
      <point x="113.556" y="-13.5556"/>
      <point x="27.4444" y="43.5555"/>
      <point x="28" y="42" type="curve"/>
      <point x="49" y="89" type="line"/>
      <point x="48.4167" y="90.5"/>
      <point x="110.833" y="41.75"/>
      <point x="198" y="44" type="curve"/>
      <point x="277.917" y="44"/>
      <point x="355" y="105"/>
      <point x="355" y="200" type="curve" smooth="yes"/>
      <point x="355" y="287.583"/>
      <point x="289.85" y="355"/>
      <point x="169" y="355" type="curve" smooth="yes"/>
      <point x="54" y="355" type="line"/>
      <point x="91" y="698" type="line"/>
      <point x="356" y="698" type="line"/>
      <point x="356" y="641" type="line"/>
      <point x="140" y="641" type="line"/>
    </contour>
  </outline>
</glyph>
<glyph name="semicolon" format="1">
  <advance width="149"/>
  <unicode hex="003B"/>
  <outline>
    <contour>
      <point x="38" y="35" type="line"/>
      <point x="59.3333" y="61.6667"/>
      <point x="66.3333" y="88.6667"/>
      <point x="69" y="110" type="curve"/>
      <point x="53" y="112.667"/>
      <point x="41" y="127"/>
      <point x="41" y="143" type="curve" smooth="yes"/>
      <point x="41" y="161.667"/>
      <point x="55.3333" y="176"/>
      <point x="74" y="176" type="curve" smooth="yes"/>
      <point x="92.6667" y="176"/>
      <point x="106.667" y="163"/>
      <point x="108" y="143" type="curve"/>
      <point x="108" y="80.2927"/>
      <point x="74.5601" y="40.1151"/>
      <point x="55" y="23" type="curve"/>
    </contour>
    <contour>
      <point x="110" y="384" type="curve" smooth="yes"/>
      <point x="110" y="365.333"/>
      <point x="95.6667" y="351"/>
      <point x="77" y="351" type="curve" smooth="yes"/>
      <point x="59.6667" y="351"/>
      <point x="43" y="365.333"/>
      <point x="43" y="384" type="curve" smooth="yes"/>
      <point x="43" y="402.667"/>
      <point x="59.6667" y="417"/>
      <point x="77" y="417" type="curve" smooth="yes"/>
      <point x="95.6667" y="417"/>
      <point x="110" y="402.667"/>
    </contour>
  </outline>
</glyph>
<glyph name="equal" format="1">
  <advance width="390"/>
  <unicode hex="003D"/>
  <outline>
    <contour>
      <point x="34" y="356" type="line"/>
      <point x="34" y="411" type="line"/>
      <point x="353" y="411" type="line"/>
      <point x="353" y="356" type="line"/>
    </contour>
    <contour>
      <point x="34" y="252" type="line"/>
      <point x="34" y="307" type="line"/>
      <point x="353" y="307" type="line"/>
      <point x="353" y="252" type="line"/>
    </contour>
  </outline>
</glyph>
<glyph name="question" format="1">
  <advance width="404"/>
  <unicode hex="003F"/>
  <outline>
    <contour>
      <point x="25" y="530" type="line"/>
      <point x="25" y="651.799"/>
      <point x="114.935" y="709.001"/>
      <point x="203" y="707" type="curve" smooth="yes"/>
      <point x="291.113" y="704.997"/>
      <point x="375" y="642.152"/>
      <point x="375" y="536" type="curve" smooth="yes"/>
      <point x="375" y="468.542"/>
      <point x="334.277" y="413.782"/>
      <point x="293" y="365" type="curve" smooth="yes"/>
      <point x="253.549" y="320.288"/>
      <point x="216" y="288.32"/>
      <point x="216" y="206" type="curve" smooth="yes"/>
      <point x="216" y="119" type="line"/>
      <point x="165" y="119" type="line"/>
      <point x="165" y="211" type="line" smooth="yes"/>
      <point x="165" y="299.258"/>
      <point x="204.58" y="345.234"/>
      <point x="242" y="388" type="curve" smooth="yes"/>
      <point x="279.987" y="431.985"/>
      <point x="320" y="467.295"/>
      <point x="320" y="533" type="curve" smooth="yes"/>
      <point x="320" y="613.022"/>
      <point x="261.201" y="651.993"/>
      <point x="203" y="654" type="curve" smooth="yes"/>
      <point x="142.582" y="656.014"/>
      <point x="82" y="616.456"/>
      <point x="82" y="530" type="curve"/>
    </contour>
    <contour>
      <point x="192" y="57" type="curve" smooth="yes"/>
      <point x="209.333" y="57"/>
      <point x="225" y="42.6667"/>
      <point x="225" y="24" type="curve" smooth="yes"/>
      <point x="225" y="5.33333"/>
      <point x="209.333" y="-9"/>
      <point x="192" y="-9" type="curve" smooth="yes"/>
      <point x="173.333" y="-9"/>
      <point x="157" y="5.33333"/>
      <point x="157" y="24" type="curve" smooth="yes"/>
      <point x="157" y="42.6667"/>
      <point x="173.333" y="57"/>
    </contour>
  </outline>
</glyph>
<glyph name="G" format="1">
  <advance width="477"/>
  <unicode hex="0047"/>
  <outline>
    <contour>
      <point x="353" y="636" type="line"/>
      <point x="315.667" y="650.667"/>
      <point x="280.333" y="657"/>
      <point x="247" y="657" type="curve" smooth="yes"/>
      <point x="148" y="657"/>
      <point x="90" y="614"/>
      <point x="90" y="510" type="curve" smooth="yes"/>
      <point x="90" y="186" type="line" smooth="yes"/>
      <point x="90" y="95.0125"/>
      <point x="158.345" y="44"/>
      <point x="245" y="44" type="curve" smooth="yes"/>
      <point x="331.1" y="44"/>
      <point x="392" y="98.2284"/>
      <point x="392" y="186" type="curve" smooth="yes"/>
      <point x="392" y="244" type="line"/>
      <point x="263" y="244" type="line"/>
      <point x="243" y="299" type="line"/>
      <point x="445" y="299" type="line"/>
      <point x="445" y="0" type="line"/>
      <point x="394" y="0" type="line"/>
      <point x="390" y="41" type="line"/>
      <point x="353.541" y="6.56624"/>
      <point x="309" y="-10"/>
      <point x="247" y="-10" type="curve" smooth="yes"/>
      <point x="132" y="-10"/>
      <point x="34" y="58"/>
      <point x="34" y="188" type="curve" smooth="yes"/>
      <point x="34" y="502" type="line" smooth="yes"/>
      <point x="34" y="630"/>
      <point x="102" y="707"/>
      <point x="228" y="707" type="curve" smooth="yes"/>
      <point x="280" y="707"/>
      <point x="327.333" y="696"/>
      <point x="370" y="674" type="curve"/>
    </contour>
  </outline>
</glyph>
<glyph name="P" format="1">
  <advance width="506"/>
  <unicode hex="0050"/>
  <outline>
    <contour>
      <point x="277" y="700" type="line" smooth="yes"/>
      <point x="404" y="700"/>
      <point x="476" y="645"/>
      <point x="476" y="474" type="curve" smooth="yes"/>
      <point x="476" y="308"/>
      <point x="410" y="245"/>
      <point x="277" y="245" type="curve" smooth="yes"/>
      <point x="98" y="245" type="line"/>
      <point x="98" y="0" type="line"/>
      <point x="41" y="0" type="line"/>
      <point x="41" y="700" type="line"/>
    </contour>
    <contour>
      <point x="98" y="300" type="line"/>
      <point x="282" y="300" type="line" smooth="yes"/>
      <point x="358" y="300"/>
      <point x="419" y="321"/>
      <point x="419" y="474" type="curve" smooth="yes"/>
      <point x="419" y="615"/>
      <point x="360" y="647"/>
      <point x="282" y="647" type="curve" smooth="yes"/>
      <point x="98" y="647" type="line"/>
    </contour>
  </outline>
</glyph>
<glyph name="Q" format="1">
  <advance width="490"/>
  <unicode hex="0051"/>
  <outline>
    <component base="O"/>
    <contour>
      <point x="270" y="50" type="line" smooth="yes"/>
      <point x="270" y="-32.55"/>
      <point x="314.817" y="-61"/>
      <point x="395" y="-61" type="curve"/>
      <point x="389" y="-107" type="line"/>
      <point x="272.783" y="-107"/>
      <point x="214" y="-61.5333"/>
      <point x="214" y="51" type="curve" smooth="yes"/>
      <point x="214" y="173" type="line"/>
      <point x="270" y="173" type="line"/>
    </contour>
  </outline>
</glyph>
<glyph name="S" format="1">
  <advance width="528"/>
  <unicode hex="0053"/>
  <outline>
    <contour>
      <point x="419" y="618" type="line"/>
      <point x="378" y="641"/>
      <point x="331" y="653"/>
      <point x="284" y="653" type="curve" smooth="yes"/>
      <point x="212" y="653"/>
      <point x="118" y="630"/>
      <point x="118" y="541" type="curve" smooth="yes"/>
      <point x="118" y="369"/>
      <point x="498" y="425"/>
      <point x="498" y="179" type="curve" smooth="yes"/>
      <point x="498" y="46"/>
      <point x="380" y="-12"/>
      <point x="262" y="-12" type="curve" smooth="yes"/>
      <point x="168" y="-12"/>
      <point x="87" y="20"/>
      <point x="25" y="92" type="curve"/>
      <point x="60" y="127" type="line"/>
      <point x="102" y="71"/>
      <point x="190" y="42"/>
      <point x="258" y="42" type="curve" smooth="yes"/>
      <point x="352" y="42"/>
      <point x="438" y="81"/>
      <point x="438" y="187" type="curve" smooth="yes"/>
      <point x="438" y="368"/>
      <point x="60" y="327"/>
      <point x="60" y="536" type="curve" smooth="yes"/>
      <point x="60" y="662"/>
      <point x="175" y="707"/>
      <point x="283" y="707" type="curve" smooth="yes"/>
      <point x="336" y="707"/>
      <point x="389" y="695"/>
      <point x="436" y="670" type="curve"/>
    </contour>
  </outline>
</glyph>
<glyph name="T" format="1">
  <advance width="416"/>
  <unicode hex="0054"/>
  <outline>
    <contour>
      <point x="232" y="648" type="line"/>
      <point x="232" y="0" type="line"/>
      <point x="177" y="0" type="line"/>
      <point x="177" y="648" type="line"/>
      <point x="7" y="648" type="line"/>
      <point x="7" y="698" type="line"/>
      <point x="408" y="698" type="line"/>
      <point x="408" y="648" type="line"/>
    </contour>
  </outline>
</glyph>
<glyph name="W" format="1">
  <advance width="731"/>
  <unicode hex="0057"/>
  <outline>
    <contour>
      <point x="404" y="698" type="line"/>
      <point x="511" y="69" type="line"/>
      <point x="652" y="698" type="line"/>
      <point x="711" y="698" type="line"/>
      <point x="548" y="0" type="line"/>
      <point x="464" y="0" type="line"/>
      <point x="366" y="597" type="line"/>
      <point x="267" y="0" type="line"/>
      <point x="182" y="0" type="line"/>
      <point x="17" y="698" type="line"/>
      <point x="78" y="698" type="line"/>
      <point x="219" y="69" type="line"/>
      <point x="326" y="698" type="line"/>
    </contour>
  </outline>
</glyph>
<glyph name="Z" format="1">
  <advance width="545"/>
  <unicode hex="005A"/>
  <outline>
    <contour>
      <point x="509" y="698" type="line"/>
      <point x="509" y="648" type="line"/>
      <point x="99" y="51" type="line"/>
      <point x="514" y="51" type="line"/>
      <point x="514" y="0" type="line"/>
      <point x="29" y="0" type="line"/>
      <point x="29" y="50" type="line"/>
      <point x="437" y="647" type="line"/>
      <point x="41" y="647" type="line"/>
      <point x="41" y="698" type="line"/>
    </contour>
  </outline>
</glyph>
<glyph name="bracketleft" format="1">
  <advance width="222"/>
  <unicode hex="005B"/>
  <outline>
    <contour>
      <point x="98" y="760" type="line"/>
      <point x="98" y="-59" type="line"/>
      <point x="203" y="-69" type="line"/>
      <point x="203" y="-113" type="line"/>
      <point x="42" y="-113" type="line"/>
      <point x="42" y="815" type="line"/>
      <point x="203" y="815" type="line"/>
      <point x="203" y="770" type="line"/>
    </contour>
  </outline>
</glyph>
<glyph name="grave" format="1">
  <advance width="266"/>
  <unicode hex="0060"/>
  <outline>
    <contour>
      <point x="113" y="715" type="curve"/>
      <point x="152" y="608" type="line"/>
      <point x="116" y="608" type="line"/>
      <point x="63" y="687" type="line"/>
      <point x="51" y="701.667"/>
      <point x="51.6667" y="725.667"/>
      <point x="69" y="735" type="curve" smooth="yes"/>
      <point x="87.6667" y="745.667"/>
      <point x="107.667" y="733.667"/>
    </contour>
  </outline>
</glyph>
<glyph name="b" format="1">
  <advance width="455"/>
  <unicode hex="0062"/>
  <outline>
    <contour>
      <point x="97" y="471" type="line"/>
      <point x="142.333" y="491"/>
      <point x="193.667" y="508"/>
      <point x="259" y="508" type="curve" smooth="yes"/>
      <point x="338.844" y="508"/>
      <point x="425" y="470.26"/>
      <point x="425" y="358" type="curve" smooth="yes"/>
      <point x="425" y="294.667"/>
      <point x="425" y="231.333"/>
      <point x="425" y="168" type="curve" smooth="yes"/>
      <point x="425" y="21.0043"/>
      <point x="326.822" y="-13.9637"/>
      <point x="198" y="-10" type="curve" smooth="yes"/>
      <point x="151.34" y="-8.7843"/>
      <point x="38.5621" y="-0.117633"/>
      <point x="41" y="0" type="curve"/>
      <point x="41" y="698" type="line"/>
      <point x="97" y="698" type="line"/>
    </contour>
    <contour>
      <point x="97" y="46" type="curve"/>
      <point x="97.1176" y="46.3399"/>
      <point x="137.784" y="41.8955"/>
      <point x="203" y="38" type="curve"/>
      <point x="336.449" y="32.6621"/>
      <point x="370" y="79.8953"/>
      <point x="370" y="175" type="curve" smooth="yes"/>
      <point x="370" y="193.229"/>
      <point x="370" y="334.673"/>
      <point x="370" y="354" type="curve" smooth="yes"/>
      <point x="370" y="446.483"/>
      <point x="300.133" y="461"/>
      <point x="263" y="461" type="curve" smooth="yes"/>
      <point x="199" y="461"/>
      <point x="151.667" y="444.667"/>
      <point x="97" y="422" type="curve"/>
      <point x="97" y="296.956"/>
      <point x="97" y="172.152"/>
    </contour>
  </outline>
</glyph>
<glyph name="c" format="1">
  <advance width="381"/>
  <unicode hex="0063"/>
  <outline>
    <contour>
      <point x="335" y="433" type="line"/>
      <point x="300" y="449"/>
      <point x="256" y="458"/>
      <point x="217" y="459" type="curve" smooth="yes"/>
      <point x="123" y="459"/>
      <point x="86" y="397"/>
      <point x="85" y="311" type="curve" smooth="yes"/>
      <point x="84" y="186" type="line" smooth="yes"/>
      <point x="83" y="84"/>
      <point x="125" y="43"/>
      <point x="221" y="41" type="curve" smooth="yes"/>
      <point x="280" y="41"/>
      <point x="342" y="56"/>
      <point x="340" y="55" type="curve"/>
      <point x="351" y="5" type="line"/>
      <point x="310" y="-6"/>
      <point x="263" y="-12"/>
      <point x="219" y="-11" type="curve" smooth="yes"/>
      <point x="104" y="-9"/>
      <point x="29" y="47"/>
      <point x="29" y="174" type="curve" smooth="yes"/>
      <point x="29" y="319" type="line" smooth="yes"/>
      <point x="29" y="433"/>
      <point x="91" y="510"/>
      <point x="215" y="510" type="curve" smooth="yes"/>
      <point x="260" y="510"/>
      <point x="307" y="497"/>
      <point x="349" y="478" type="curve"/>
    </contour>
  </outline>
</glyph>
<glyph name="n" format="1">
  <advance width="442"/>
  <unicode hex="006E"/>
  <outline>
    <contour>
      <point x="351" y="341" type="line" smooth="yes"/>
      <point x="351" y="431.15"/>
      <point x="285.167" y="458"/>
      <point x="221" y="458" type="curve" smooth="yes"/>
      <point x="175.667" y="458"/>
      <point x="135.333" y="446.667"/>
      <point x="94" y="424" type="curve"/>
      <point x="94" y="0" type="line"/>
      <point x="38" y="0" type="line"/>
      <point x="38" y="499" type="line"/>
      <point x="94" y="499" type="line"/>
      <point x="94" y="465" type="line"/>
      <point x="132.667" y="491.667"/>
      <point x="182.667" y="508"/>
      <point x="232" y="508" type="curve" smooth="yes"/>
      <point x="342.251" y="508"/>
      <point x="406" y="448"/>
      <point x="406" y="344" type="curve" smooth="yes"/>
      <point x="406" y="0" type="line"/>
      <point x="351" y="0" type="line"/>
    </contour>
  </outline>
</glyph>
<glyph name="u" format="1">
  <advance width="444"/>
  <unicode hex="0075"/>
  <outline>
    <contour>
      <point x="348" y="48" type="line"/>
      <point x="314.667" y="9.33333"/>
      <point x="259.667" y="-10"/>
      <point x="209" y="-10" type="curve" smooth="yes"/>
      <point x="98.1255" y="-10"/>
      <point x="35" y="42.9784"/>
      <point x="35" y="156" type="curve" smooth="yes"/>
      <point x="35" y="499" type="line"/>
      <point x="91" y="499" type="line"/>
      <point x="91" y="170.114" type="line" smooth="yes"/>
      <point x="91" y="79.0469"/>
      <point x="135.577" y="44"/>
      <point x="211.106" y="44" type="curve" smooth="yes"/>
      <point x="291" y="44"/>
      <point x="348" y="101.067"/>
      <point x="348" y="172" type="curve" smooth="yes"/>
      <point x="348" y="499" type="line"/>
      <point x="404" y="499" type="line"/>
      <point x="404" y="0" type="line"/>
      <point x="348" y="0" type="line"/>
    </contour>
  </outline>
</glyph>
<glyph name="y" format="1">
  <advance width="467"/>
  <unicode hex="0079"/>
  <outline>
    <contour>
      <point x="437" y="468" type="line"/>
      <point x="418.333" y="460"/>
      <point x="404" y="448.333"/>
      <point x="404" y="407" type="curve" smooth="yes"/>
      <point x="404" y="-62" type="line" smooth="yes"/>
      <point x="404" y="-144"/>
      <point x="375" y="-183"/>
      <point x="299" y="-208" type="curve"/>
      <point x="283" y="-165" type="line"/>
      <point x="329" y="-147"/>
      <point x="348" y="-109"/>
      <point x="348" y="-61" type="curve" smooth="yes"/>
      <point x="348" y="50" type="line"/>
      <point x="314.667" y="10"/>
      <point x="259.667" y="-9"/>
      <point x="209" y="-9" type="curve" smooth="yes"/>
      <point x="98.7489" y="-9"/>
      <point x="35" y="43.9784"/>
      <point x="35" y="157" type="curve" smooth="yes"/>
      <point x="35" y="499" type="line"/>
      <point x="91" y="499" type="line"/>
      <point x="91" y="161" type="line" smooth="yes"/>
      <point x="91" y="68.6"/>
      <point x="159.083" y="44"/>
      <point x="221" y="44" type="curve" smooth="yes"/>
      <point x="292.167" y="44"/>
      <point x="348" y="102.75"/>
      <point x="348" y="173" type="curve" smooth="yes"/>
      <point x="348" y="408" type="line" smooth="yes"/>
      <point x="348" y="453.083"/>
      <point x="369.625" y="494.208"/>
      <point x="417" y="510" type="curve"/>
    </contour>
  </outline>
</glyph>
<glyph name="bar" format="1">
  <advance width="140"/>
  <unicode hex="007C"/>
  <outline>
    <contour>
      <point x="42" y="-113" type="line"/>
      <point x="42" y="815" type="line"/>
      <point x="97" y="815" type="line"/>
      <point x="97" y="-113" type="line"/>
    </contour>
  </outline>
</glyph>
<glyph name="braceright" format="1">
  <advance width="262"/>
  <unicode hex="007D"/>
  <outline>
    <contour>
      <point x="43" y="820" type="line"/>
      <point x="47.0346" y="817.983"/>
      <point x="152" y="788.576"/>
      <point x="152" y="628" type="curve" smooth="yes"/>
      <point x="152" y="515" type="line" smooth="yes"/>
      <point x="152" y="458.445"/>
      <point x="157.464" y="408.402"/>
      <point x="222" y="360" type="curve" smooth="yes"/>
      <point x="233" y="352" type="line"/>
      <point x="222" y="344" type="line" smooth="yes"/>
      <point x="157.296" y="295.472"/>
      <point x="152" y="244.306"/>
      <point x="152" y="189" type="curve" smooth="yes"/>
      <point x="152" y="76" type="line" smooth="yes"/>
      <point x="152" y="-84.1113"/>
      <point x="47.1493" y="-114.425"/>
      <point x="42" y="-117" type="curve"/>
      <point x="20" y="-67" type="line"/>
      <point x="49.0604" y="-51.1488"/>
      <point x="96" y="-12.8816"/>
      <point x="96" y="76" type="curve" smooth="yes"/>
      <point x="96" y="189" type="line" smooth="yes"/>
      <point x="96" y="244.89"/>
      <point x="101.822" y="299.846"/>
      <point x="162" y="352" type="curve"/>
      <point x="101.822" y="404.154"/>
      <point x="96" y="459.11"/>
      <point x="96" y="515" type="curve" smooth="yes"/>
      <point x="96" y="628" type="line" smooth="yes"/>
      <point x="96" y="717.959"/>
      <point x="50.1328" y="756.109"/>
      <point x="21" y="772" type="curve"/>
    </contour>
  </outline>
</glyph>
<glyph name="asciitilde" format="1">
  <advance width="266"/>
  <unicode hex="007E"/>
  <outline>
    <contour>
      <point x="288" y="305" type="line"/>
      <point x="257.333" y="271.667"/>
      <point x="229.333" y="260.667"/>
      <point x="204" y="262" type="curve"/>
      <point x="157.504" y="262"/>
      <point x="114.745" y="296.011"/>
      <point x="69" y="298" type="curve" smooth="yes"/>
      <point x="47.6667" y="299.333"/>
      <point x="26" y="293.667"/>
      <point x="2" y="271" type="curve"/>
      <point x="-21" y="312" type="line"/>
      <point x="8.33333" y="342.667"/>
      <point x="35.6667" y="353"/>
      <point x="61" y="353" type="curve" smooth="yes"/>
      <point x="111" y="353"/>
      <point x="155.75" y="317"/>
      <point x="202" y="317" type="curve"/>
      <point x="227.333" y="318.333"/>
      <point x="247" y="328.667"/>
      <point x="263" y="346" type="curve"/>
    </contour>
  </outline>
</glyph>
<glyph name="exclamdown" format="1">
  <advance width="147"/>
  <unicode hex="00A1"/>
  <outline>
    <contour>
      <point x="106" y="36" type="line"/>
      <point x="106" y="12"/>
      <point x="95" y="0"/>
      <point x="73" y="0" type="curve" smooth="yes"/>
      <point x="51.6667" y="0"/>
      <point x="40" y="11.6667"/>
      <point x="40" y="37" type="curve"/>
      <point x="50" y="588" type="line"/>
      <point x="97" y="588" type="line"/>
    </contour>
    <contour>
      <point x="106" y="674" type="curve" smooth="yes"/>
      <point x="106" y="656.667"/>
      <point x="91.6667" y="641"/>
      <point x="73" y="641" type="curve" smooth="yes"/>
      <point x="54.3333" y="641"/>
      <point x="39" y="656.667"/>
      <point x="39" y="674" type="curve" smooth="yes"/>
      <point x="39" y="692.667"/>
      <point x="54.3333" y="707"/>
      <point x="73" y="707" type="curve" smooth="yes"/>
      <point x="91.6667" y="707"/>
      <point x="106" y="692.667"/>
    </contour>
  </outline>
</glyph>
<glyph name="cent" format="1">
  <advance width="380"/>
  <unicode hex="00A2"/>
  <outline>
    <component base="c"/>
    <contour>
      <point x="188" y="-113" type="line"/>
      <point x="188" y="621" type="line"/>
      <point x="244" y="621" type="line"/>
      <point x="244" y="-113" type="line"/>
    </contour>
  </outline>
</glyph>
<glyph name="ordfeminine" format="1">
  <advance width="328"/>
  <unicode hex="00AA"/>
  <outline>
    <contour>
      <point x="292" y="389" type="curve"/>
      <point x="248" y="383.667"/>
      <point x="207" y="378"/>
      <point x="171" y="378" type="curve"/>
      <point x="83.9624" y="380.638"/>
      <point x="23" y="410.226"/>
      <point x="23" y="517" type="curve" smooth="yes"/>
      <point x="23" y="582.412"/>
      <point x="59.7957" y="631.006"/>
      <point x="128" y="629" type="curve" smooth="yes"/>
      <point x="158.667" y="627.667"/>
      <point x="196" y="616.333"/>
      <point x="240" y="591" type="curve"/>
      <point x="240" y="613.667"/>
      <point x="231.217" y="634.929"/>
      <point x="209" y="649" type="curve" smooth="yes"/>
      <point x="191.19" y="660.28"/>
      <point x="160.333" y="664"/>
      <point x="123" y="664" type="curve"/>
      <point x="127" y="707" type="line"/>
      <point x="181.667" y="707"/>
      <point x="222.333" y="698.667"/>
      <point x="249" y="676" type="curve" smooth="yes"/>
      <point x="277" y="653.333"/>
      <point x="292" y="614.333"/>
      <point x="292" y="553" type="curve" smooth="yes"/>
      <point x="292" y="498.771"/>
      <point x="292" y="443.549"/>
    </contour>
    <contour>
      <point x="238" y="541" type="line"/>
      <point x="198" y="565"/>
      <point x="155" y="582"/>
      <point x="123" y="582" type="curve" smooth="yes"/>
      <point x="90.8167" y="582"/>
      <point x="70" y="563.167"/>
      <point x="70" y="512" type="curve" smooth="yes"/>
      <point x="70" y="472"/>
      <point x="86" y="446.667"/>
      <point x="118" y="432" type="curve" smooth="yes"/>
      <point x="154.993" y="415.556"/>
      <point x="239.438" y="428.444"/>
      <point x="238" y="428" type="curve"/>
    </contour>
  </outline>
</glyph>
<glyph name="registered" format="1">
  <advance width="694"/>
  <unicode hex="00AE"/>
  <outline>
    <contour>
      <point x="662" y="187" type="line" smooth="yes"/>
      <point x="662" y="15.6323"/>
      <point x="530.114" y="-66.9988"/>
      <point x="346" y="-69" type="curve"/>
      <point x="163.453" y="-66.994"/>
      <point x="31" y="15.6285"/>
      <point x="31" y="187" type="curve" smooth="yes"/>
      <point x="31" y="326" type="line" smooth="yes"/>
      <point x="31" y="494.867"/>
      <point x="163.45" y="582"/>
      <point x="346" y="582" type="curve" smooth="yes"/>
      <point x="530.117" y="582"/>
      <point x="662" y="494.867"/>
      <point x="662" y="326" type="curve" smooth="yes"/>
    </contour>
    <contour>
      <point x="601" y="301" type="line" smooth="yes"/>
      <point x="601" y="465.174"/>
      <point x="520.954" y="526.012"/>
      <point x="346" y="528" type="curve"/>
      <point x="171.28" y="525.992"/>
      <point x="90" y="465.19"/>
      <point x="90" y="301" type="curve" smooth="yes"/>
      <point x="90" y="211" type="line" smooth="yes"/>
      <point x="90" y="48.3767"/>
      <point x="171.281" y="-12.9917"/>
      <point x="346" y="-15" type="curve"/>
      <point x="520.952" y="-13.0119"/>
      <point x="601" y="48.3929"/>
      <point x="601" y="211" type="curve" smooth="yes"/>
    </contour>
    <contour>
      <point x="384" y="442" type="line" smooth="yes"/>
      <point x="436.955" y="442"/>
      <point x="511.352" y="430.146"/>
      <point x="514" y="311" type="curve" smooth="yes"/>
      <point x="514.915" y="255.214"/>
      <point x="498.151" y="203.047"/>
      <point x="440" y="185" type="curve"/>
      <point x="503" y="59" type="line"/>
      <point x="439" y="59" type="line"/>
      <point x="382" y="176" type="line"/>
      <point x="233" y="176" type="line"/>
      <point x="233" y="59" type="line"/>
      <point x="180" y="59" type="line"/>
      <point x="180" y="442" type="line"/>
    </contour>
    <contour>
      <point x="387" y="232" type="line" smooth="yes"/>
      <point x="437.667" y="232"/>
      <point x="462" y="256.667"/>
      <point x="462" y="310" type="curve" smooth="yes"/>
      <point x="462" y="364.667"/>
      <point x="440.333" y="388"/>
      <point x="387" y="388" type="curve" smooth="yes"/>
      <point x="233" y="388" type="line"/>
      <point x="233" y="232" type="line"/>
    </contour>
  </outline>
</glyph>
<glyph name="degree" format="1">
  <advance width="266"/>
  <unicode hex="00B0"/>
  <outline>
    <contour>
      <point x="279" y="563" type="curve" smooth="yes"/>
      <point x="279" y="482.983"/>
      <point x="214.017" y="418"/>
      <point x="134" y="418" type="curve" smooth="yes"/>
      <point x="53.3167" y="418"/>
      <point x="-12" y="482.983"/>
      <point x="-12" y="563" type="curve" smooth="yes"/>
      <point x="-12" y="643.017"/>
      <point x="53.3167" y="708"/>
      <point x="134" y="708" type="curve" smooth="yes"/>
      <point x="214.017" y="708"/>
      <point x="279" y="643.017"/>
    </contour>
    <contour>
      <point x="134" y="658" type="curve" smooth="yes"/>
      <point x="82.3667" y="658"/>
      <point x="39" y="614.633"/>
      <point x="39" y="563" type="curve" smooth="yes"/>
      <point x="39" y="512.933"/>
      <point x="82.3667" y="469"/>
      <point x="134" y="469" type="curve" smooth="yes"/>
      <point x="184.967" y="469"/>
      <point x="228" y="512.933"/>
      <point x="228" y="563" type="curve" smooth="yes"/>
      <point x="228" y="614.633"/>
      <point x="184.967" y="658"/>
    </contour>
  </outline>
</glyph>
<glyph name="acute" format="1">
  <advance width="266"/>
  <unicode hex="00B4"/>
  <outline>
    <contour>
      <point x="196" y="682" type="curve" smooth="yes"/>
      <point x="143" y="603" type="line"/>
      <point x="108" y="603" type="line"/>
      <point x="146" y="710" type="line" smooth="yes"/>
      <point x="152.667" y="728.667"/>
      <point x="171.209" y="738.884"/>
      <point x="189" y="729" type="curve" smooth="yes"/>
      <point x="207.244" y="718.865"/>
      <point x="207.059" y="698.484"/>
    </contour>
  </outline>
</glyph>
<glyph name="mu" format="1">
  <advance width="466"/>
  <unicode hex="00B5"/>
  <outline>
    <contour>
      <point x="409" y="95" type="line" smooth="yes"/>
      <point x="409" y="52"/>
      <point x="438" y="26"/>
      <point x="436" y="26" type="curve"/>
      <point x="409" y="-6" type="line"/>
      <point x="410" y="-5"/>
      <point x="383" y="2"/>
      <point x="361" y="44" type="curve"/>
      <point x="341" y="9"/>
      <point x="289" y="-12"/>
      <point x="238" y="-12" type="curve" smooth="yes"/>
      <point x="132" y="-12"/>
      <point x="97" y="47"/>
      <point x="97" y="44" type="curve"/>
      <point x="97" y="-210" type="line"/>
      <point x="39" y="-187" type="line"/>
      <point x="39" y="501" type="line"/>
      <point x="97" y="501" type="line"/>
      <point x="97" y="152" type="line" smooth="yes"/>
      <point x="97" y="94"/>
      <point x="147" y="43"/>
      <point x="236" y="43" type="curve" smooth="yes"/>
      <point x="304" y="43"/>
      <point x="352" y="79"/>
      <point x="352" y="154" type="curve" smooth="yes"/>
      <point x="352" y="498" type="line"/>
      <point x="409" y="510" type="line"/>
    </contour>
  </outline>
</glyph>
<glyph name="paragraph" format="1">
  <advance width="620"/>
  <unicode hex="00B6"/>
  <outline>
    <contour>
      <point x="227" y="246" type="line" smooth="yes"/>
      <point x="96.2554" y="246"/>
      <point x="30" y="308.563"/>
      <point x="30" y="474" type="curve" smooth="yes"/>
      <point x="30" y="644.823"/>
      <point x="99.9957" y="700"/>
      <point x="227" y="700" type="curve" smooth="yes"/>
      <point x="577" y="700" type="line"/>
      <point x="577" y="1" type="line"/>
      <point x="521" y="1" type="line"/>
      <point x="521" y="647" type="line"/>
      <point x="462" y="647" type="line"/>
      <point x="462" y="1" type="line"/>
      <point x="407" y="1" type="line"/>
      <point x="407" y="246" type="line"/>
    </contour>
    <contour>
      <point x="223" y="647" type="line" smooth="yes"/>
      <point x="145.167" y="647"/>
      <point x="86" y="615.433"/>
      <point x="86" y="474" type="curve" smooth="yes"/>
      <point x="86" y="322"/>
      <point x="147.417" y="300"/>
      <point x="223" y="300" type="curve" smooth="yes"/>
      <point x="407" y="300" type="line"/>
      <point x="407" y="647" type="line"/>
    </contour>
  </outline>
</glyph>
<glyph name="questiondown" format="1">
  <advance width="408"/>
  <unicode hex="00BF"/>
  <outline>
    <contour>
      <point x="378" y="161" type="line"/>
      <point x="377" y="40"/>
      <point x="292" y="-15"/>
      <point x="206" y="-15" type="curve" smooth="yes"/>
      <point x="117" y="-15"/>
      <point x="29" y="45"/>
      <point x="29" y="155" type="curve" smooth="yes"/>
      <point x="29" y="228"/>
      <point x="65" y="273"/>
      <point x="111" y="326" type="curve" smooth="yes"/>
      <point x="150.536" y="370.808"/>
      <point x="187" y="402.606"/>
      <point x="187" y="485" type="curve" smooth="yes"/>
      <point x="187" y="572" type="line"/>
      <point x="239" y="572" type="line"/>
      <point x="239" y="480" type="line" smooth="yes"/>
      <point x="239" y="393.29"/>
      <point x="199.145" y="344.452"/>
      <point x="162" y="302" type="curve" smooth="yes"/>
      <point x="123.666" y="259.631"/>
      <point x="84" y="225.012"/>
      <point x="84" y="157" type="curve" smooth="yes"/>
      <point x="84" y="79.4448"/>
      <point x="142.812" y="39.0065"/>
      <point x="201" y="37" type="curve" smooth="yes"/>
      <point x="262.31" y="35.0223"/>
      <point x="322" y="75.8656"/>
      <point x="322" y="161" type="curve"/>
    </contour>
    <contour>
      <point x="212" y="701" type="curve" smooth="yes"/>
      <point x="230.667" y="701"/>
      <point x="246" y="685.667"/>
      <point x="246" y="667" type="curve" smooth="yes"/>
      <point x="246" y="648.333"/>
      <point x="230.667" y="634"/>
      <point x="212" y="634" type="curve" smooth="yes"/>
      <point x="194.667" y="634"/>
      <point x="179" y="648.333"/>
      <point x="179" y="667" type="curve" smooth="yes"/>
      <point x="179" y="685.667"/>
      <point x="194.667" y="701"/>
    </contour>
  </outline>
</glyph>
<glyph name="Eth" format="1">
  <advance width="495"/>
  <unicode hex="00D0"/>
  <outline>
    <component base="D"/>
    <contour>
      <point x="67" y="356" type="line"/>
      <point x="67" y="411" type="line"/>
      <point x="287" y="411" type="line"/>
      <point x="269" y="356" type="line"/>
    </contour>
  </outline>
</glyph>
<glyph name="Oslash" format="1">
  <advance width="490"/>
  <unicode hex="00D8"/>
  <outline>
    <component base="O"/>
    <contour>
      <point x="86" y="-113" type="line"/>
      <point x="410" y="815" type="line"/>
      <point x="466" y="815" type="line"/>
      <point x="147" y="-113" type="line"/>
    </contour>
  </outline>
</glyph>
<glyph name="Thorn" format="1">
  <advance width="431"/>
  <unicode hex="00DE"/>
  <outline>
    <contour>
      <point x="401" y="290" type="line" smooth="yes"/>
      <point x="401" y="192"/>
      <point x="359" y="141"/>
      <point x="289" y="119" type="curve" smooth="yes"/>
      <point x="235" y="101"/>
      <point x="160" y="103"/>
      <point x="98" y="119" type="curve"/>
      <point x="98" y="0" type="line"/>
      <point x="41" y="0" type="line"/>
      <point x="41" y="700" type="line"/>
      <point x="98" y="700" type="line"/>
      <point x="98" y="601" type="line"/>
      <point x="151" y="623"/>
      <point x="213" y="633"/>
      <point x="264" y="622" type="curve" smooth="yes"/>
      <point x="356" y="602"/>
      <point x="401" y="525"/>
      <point x="401" y="436" type="curve" smooth="yes"/>
    </contour>
    <contour>
      <point x="254" y="572" type="curve" smooth="yes"/>
      <point x="215" y="583"/>
      <point x="142" y="570"/>
      <point x="98" y="549" type="curve"/>
      <point x="98" y="170" type="line"/>
      <point x="119" y="167"/>
      <point x="219" y="145"/>
      <point x="277" y="169" type="curve" smooth="yes"/>
      <point x="329" y="189"/>
      <point x="347" y="235"/>
      <point x="347" y="302" type="curve" smooth="yes"/>
      <point x="347" y="421" type="line" smooth="yes"/>
      <point x="347" y="486"/>
      <point x="323" y="553"/>
    </contour>
  </outline>
</glyph>
<glyph name="dcroat" format="1">
  <advance width="456"/>
  <unicode hex="0111"/>
  <outline>
    <component base="d"/>
    <contour>
      <point x="460" y="562" type="line"/>
      <point x="460" y="615" type="line"/>
      <point x="224" y="615" type="line"/>
      <point x="224" y="562" type="line"/>
    </contour>
  </outline>
</glyph>
<glyph name="Hbar" format="1">
  <advance width="513"/>
  <unicode hex="0126"/>
  <outline>
    <component base="Eta"/>
    <contour>
      <point x="510" y="498" type="line"/>
      <point x="-3" y="498" type="line"/>
      <point x="-3" y="552" type="line"/>
      <point x="510" y="552" type="line"/>
    </contour>
  </outline>
</glyph>
<glyph name="hbar" format="1">
  <advance width="471"/>
  <unicode hex="0127"/>
  <outline>
    <contour>
      <point x="261" y="562" type="line"/>
      <point x="26" y="562" type="line"/>
      <point x="26" y="615" type="line"/>
      <point x="261" y="615" type="line"/>
    </contour>
    <contour>
      <point x="127" y="465" type="line"/>
      <point x="165.667" y="491.667"/>
      <point x="216.667" y="508"/>
      <point x="266" y="508" type="curve" smooth="yes"/>
      <point x="376.251" y="508"/>
      <point x="440" y="449.892"/>
      <point x="440" y="345" type="curve" smooth="yes"/>
      <point x="440" y="0" type="line"/>
      <point x="384" y="0" type="line"/>
      <point x="384" y="342" type="line" smooth="yes"/>
      <point x="384" y="432.833"/>
      <point x="318.5" y="458"/>
      <point x="255" y="458" type="curve" smooth="yes"/>
      <point x="209.667" y="458"/>
      <point x="168.333" y="446.667"/>
      <point x="127" y="424" type="curve"/>
      <point x="127" y="0" type="line"/>
      <point x="71" y="0" type="line"/>
      <point x="71" y="698" type="line"/>
      <point x="127" y="698" type="line"/>
    </contour>
  </outline>
</glyph>
<glyph name="IJ" format="1">
  <advance width="549"/>
  <unicode hex="0132"/>
  <outline>
    <contour>
      <point x="505" y="698" type="line"/>
      <point x="505" y="185" type="line" smooth="yes"/>
      <point x="505" y="57.5471"/>
      <point x="420.039" y="-11"/>
      <point x="297" y="-11" type="curve" smooth="yes"/>
      <point x="172.656" y="-11"/>
      <point x="87" y="55.5179"/>
      <point x="87" y="185" type="curve" smooth="yes"/>
      <point x="87" y="222" type="line"/>
      <point x="142" y="222" type="line"/>
      <point x="142" y="186" type="line" smooth="yes"/>
      <point x="142" y="90.5879"/>
      <point x="205.048" y="42"/>
      <point x="296" y="42" type="curve" smooth="yes"/>
      <point x="388.154" y="42"/>
      <point x="450" y="90.2536"/>
      <point x="450" y="186" type="curve" smooth="yes"/>
      <point x="450" y="647" type="line"/>
      <point x="382" y="649" type="line"/>
      <point x="382" y="698" type="line"/>
    </contour>
    <contour>
      <point x="142" y="698" type="line"/>
      <point x="142" y="274" type="line"/>
      <point x="87" y="274" type="line"/>
      <point x="87" y="647" type="line"/>
      <point x="19" y="649" type="line"/>
      <point x="19" y="698" type="line"/>
    </contour>
  </outline>
</glyph>
<glyph name="lslash" format="1">
  <advance width="354"/>
  <unicode hex="0142"/>
  <outline>
    <component base="l" xOffset="103"/>
    <contour>
      <point x="308" y="489" type="line"/>
      <point x="331" y="439" type="line"/>
      <point x="39" y="308" type="line"/>
      <point x="17" y="357" type="line"/>
    </contour>
  </outline>
</glyph>
<glyph name="dotlessj" format="1">
  <advance width="187"/>
  <unicode hex="0237"/>
  <outline>
    <contour>
      <point x="147" y="-63" type="line" smooth="yes"/>
      <point x="147" y="-144"/>
      <point x="118" y="-185"/>
      <point x="42" y="-209" type="curve"/>
      <point x="26" y="-166" type="line"/>
      <point x="72" y="-148"/>
      <point x="91" y="-110"/>
      <point x="91" y="-62" type="curve" smooth="yes"/>
      <point x="91" y="447" type="line"/>
      <point x="28" y="447" type="line"/>
      <point x="28" y="499" type="line"/>
      <point x="147" y="499" type="line"/>
    </contour>
  </outline>
</glyph>
<glyph name="caron" format="1">
  <advance width="266"/>
  <unicode hex="02C7"/>
  <outline>
    <contour>
      <point x="263" y="715" type="line"/>
      <point x="131" y="587" type="line"/>
      <point x="3" y="713" type="line"/>
      <point x="42" y="751" type="line"/>
      <point x="131" y="663" type="line"/>
      <point x="224" y="752" type="line"/>
    </contour>
  </outline>
</glyph>
<glyph name="breve" format="1">
  <advance width="266"/>
  <unicode hex="02D8"/>
  <outline>
    <contour>
      <point x="245" y="702" type="line"/>
      <point x="245" y="695" type="line" smooth="yes"/>
      <point x="245" y="632.267"/>
      <point x="195.067" y="582"/>
      <point x="133" y="582" type="curve" smooth="yes"/>
      <point x="71.6167" y="582"/>
      <point x="20" y="632.267"/>
      <point x="20" y="695" type="curve" smooth="yes"/>
      <point x="20" y="702" type="line"/>
      <point x="65" y="702" type="line"/>
      <point x="65" y="695" type="line" smooth="yes"/>
      <point x="65" y="657.667"/>
      <point x="95.6667" y="627"/>
      <point x="133" y="627" type="curve" smooth="yes"/>
      <point x="171.667" y="627"/>
      <point x="200" y="657.667"/>
      <point x="200" y="695" type="curve" smooth="yes"/>
      <point x="200" y="702" type="line"/>
    </contour>
  </outline>
</glyph>
<glyph name="ring" format="1">
  <advance width="266"/>
  <unicode hex="02DA"/>
  <outline>
    <contour>
      <point x="133" y="773" type="curve" smooth="yes"/>
      <point x="194.383" y="773"/>
      <point x="246" y="723.633"/>
      <point x="246" y="660" type="curve" smooth="yes"/>
      <point x="246" y="595.7"/>
      <point x="194.383" y="546"/>
      <point x="133" y="546" type="curve" smooth="yes"/>
      <point x="70.95" y="546"/>
      <point x="19" y="595.7"/>
      <point x="19" y="660" type="curve" smooth="yes"/>
      <point x="19" y="723.633"/>
      <point x="70.95" y="773"/>
    </contour>
    <contour>
      <point x="133" y="729" type="curve" smooth="yes"/>
      <point x="113.312" y="729"/>
      <point x="95.5245" y="721.136"/>
      <point x="82.807" y="708.311" type="curve" smooth="yes"/>
      <point x="70.5483" y="695.949"/>
      <point x="63" y="678.978"/>
      <point x="63" y="660" type="curve" smooth="yes"/>
      <point x="63" y="640.682"/>
      <point x="70.8209" y="623.194"/>
      <point x="83.4698" y="610.53" type="curve" smooth="yes"/>
      <point x="96.1389" y="597.846"/>
      <point x="113.651" y="590"/>
      <point x="133" y="590" type="curve" smooth="yes"/>
      <point x="152.285" y="590"/>
      <point x="169.497" y="597.794"/>
      <point x="181.906" y="610.405" type="curve" smooth="yes"/>
      <point x="194.379" y="623.079"/>
      <point x="202" y="640.618"/>
      <point x="202" y="660" type="curve" smooth="yes"/>
      <point x="202" y="678.754"/>
      <point x="194.864" y="695.548"/>
      <point x="183.103" y="707.871" type="curve" smooth="yes"/>
      <point x="170.615" y="720.955"/>
      <point x="152.913" y="729"/>
    </contour>
  </outline>
</glyph>
<glyph name="ogonek" format="1">
  <advance width="266"/>
  <unicode hex="02DB"/>
  <outline>
    <contour>
      <point x="161" y="11" type="line"/>
      <point x="161" y="2" type="line"/>
      <point x="90" y="-122" type="line" smooth="yes"/>
      <point x="63.9389" y="-168.108"/>
      <point x="90.2699" y="-200.243"/>
      <point x="139" y="-184" type="curve"/>
      <point x="194.34" y="-163.438"/>
      <point x="235.562" y="-150.327"/>
      <point x="236" y="-150" type="curve"/>
      <point x="254" y="-189" type="line"/>
      <point x="254.784" y="-188.889"/>
      <point x="166.784" y="-220.778"/>
      <point x="150" y="-226" type="curve" smooth="yes"/>
      <point x="61.2" y="-250.218"/>
      <point x="12.6989" y="-180.542"/>
      <point x="53" y="-108" type="curve"/>
      <point x="117" y="3" type="line"/>
      <point x="117" y="8" type="line"/>
    </contour>
  </outline>
</glyph>
<glyph name="tilde" format="1">
  <advance width="266"/>
  <unicode hex="02DC"/>
  <outline>
    <contour>
      <point x="205" y="717" type="line"/>
      <point x="255" y="717" type="line"/>
      <point x="255" y="699" type="line" smooth="yes"/>
      <point x="255" y="657.667"/>
      <point x="235.667" y="617"/>
      <point x="189" y="617" type="curve" smooth="yes"/>
      <point x="167.667" y="617"/>
      <point x="150.333" y="627.333"/>
      <point x="133" y="638" type="curve" smooth="yes"/>
      <point x="121" y="644.667"/>
      <point x="109.667" y="653.333"/>
      <point x="99" y="660" type="curve" smooth="yes"/>
      <point x="89.6667" y="666.667"/>
      <point x="76.3333" y="672.667"/>
      <point x="67" y="666" type="curve" smooth="yes"/>
      <point x="60.3333" y="660.667"/>
      <point x="61" y="644.667"/>
      <point x="61" y="638" type="curve" smooth="yes"/>
      <point x="61" y="620" type="line"/>
      <point x="11" y="620" type="line"/>
      <point x="11" y="638" type="line" smooth="yes"/>
      <point x="11" y="662"/>
      <point x="16" y="687.667"/>
      <point x="36" y="705" type="curve" smooth="yes"/>
      <point x="56" y="721"/>
      <point x="85.3333" y="721.667"/>
      <point x="108" y="711" type="curve"/>
      <point x="122.667" y="705.667"/>
      <point x="137.667" y="694.333"/>
      <point x="151" y="685" type="curve" smooth="yes"/>
      <point x="161.667" y="678.333"/>
      <point x="166.667" y="674"/>
      <point x="176" y="670" type="curve" smooth="yes"/>
      <point x="200" y="659.333"/>
      <point x="205" y="680.333"/>
      <point x="205" y="699" type="curve" smooth="yes"/>
    </contour>
  </outline>
</glyph>
<glyph name="hungarumlaut" format="1">
  <advance width="266"/>
  <unicode hex="02DD"/>
  <outline>
    <contour>
      <point x="145" y="658" type="curve" smooth="yes"/>
      <point x="91" y="580" type="line"/>
      <point x="56" y="580" type="line"/>
      <point x="94" y="686" type="line" smooth="yes"/>
      <point x="100.667" y="704.667"/>
      <point x="120.667" y="716.667"/>
      <point x="138" y="706" type="curve"/>
      <point x="156.667" y="696.667"/>
      <point x="155.934" y="673.794"/>
    </contour>
    <contour>
      <point x="256" y="658" type="curve" smooth="yes"/>
      <point x="203" y="580" type="line"/>
      <point x="168" y="580" type="line"/>
      <point x="205" y="686" type="line" smooth="yes"/>
      <point x="211.667" y="704.667"/>
      <point x="231.667" y="716.667"/>
      <point x="249" y="706" type="curve"/>
      <point x="267.667" y="696.667"/>
      <point x="267.156" y="674.418"/>
    </contour>
  </outline>
</glyph>
<glyph name="uni0307" format="1">
  <advance width="266"/>
  <unicode hex="0307"/>
  <outline>
    <contour>
      <point x="152" y="748"/>
      <point x="166" y="733"/>
      <point x="166" y="714" type="curve" smooth="yes"/>
      <point x="166" y="697"/>
      <point x="152" y="681"/>
      <point x="133" y="681" type="curve" smooth="yes"/>
      <point x="114" y="681"/>
      <point x="100" y="697"/>
      <point x="100" y="714" type="curve" smooth="yes"/>
      <point x="100" y="733"/>
      <point x="114" y="748"/>
      <point x="133" y="748" type="curve" smooth="yes"/>
    </contour>
  </outline>
</glyph>
<glyph name="Phi" format="1">
  <advance width="593"/>
  <unicode hex="03A6"/>
  <outline>
    <contour>
      <point x="180" y="659" type="line"/>
      <point x="119.353" y="644.849"/>
      <point x="89" y="596.104"/>
      <point x="89" y="516" type="curve" smooth="yes"/>
      <point x="89" y="215" type="line" smooth="yes"/>
      <point x="89" y="126.583"/>
      <point x="142.217" y="79"/>
      <point x="223" y="79" type="curve" smooth="yes"/>
      <point x="266" y="79" type="line"/>
      <point x="266" y="603" type="line" smooth="yes"/>
      <point x="266" y="670.186"/>
      <point x="310.778" y="708"/>
      <point x="373" y="708" type="curve" smooth="yes"/>
      <point x="490.033" y="708"/>
      <point x="558" y="630.417"/>
      <point x="558" y="509" type="curve" smooth="yes"/>
      <point x="558" y="224" type="line" smooth="yes"/>
      <point x="558" y="104.117"/>
      <point x="499.6" y="30"/>
      <point x="372" y="30" type="curve" smooth="yes"/>
      <point x="323" y="30" type="line"/>
      <point x="323" y="-35" type="line"/>
      <point x="266" y="-28" type="line"/>
      <point x="266" y="30" type="line"/>
      <point x="223" y="30" type="line" smooth="yes"/>
      <point x="95.4333" y="30"/>
      <point x="33" y="104.117"/>
      <point x="33" y="224" type="curve" smooth="yes"/>
      <point x="33" y="516" type="line" smooth="yes"/>
      <point x="33" y="616"/>
      <point x="72" y="678.667"/>
      <point x="150" y="704" type="curve"/>
    </contour>
    <contour>
      <point x="372" y="79" type="line" smooth="yes"/>
      <point x="453.017" y="79"/>
      <point x="505" y="126.583"/>
      <point x="505" y="215" type="curve" smooth="yes"/>
      <point x="505" y="519" type="line" smooth="yes"/>
      <point x="505" y="599.983"/>
      <point x="452.867" y="656"/>
      <point x="381" y="656" type="curve" smooth="yes"/>
      <point x="342.783" y="656"/>
      <point x="323" y="635.333"/>
      <point x="323" y="594" type="curve" smooth="yes"/>
      <point x="323" y="79" type="line"/>
    </contour>
  </outline>
</glyph>
<glyph name="beta" format="1">
  <advance width="442"/>
  <unicode hex="03B2"/>
  <outline>
    <contour>
      <point x="39" y="522" type="line" smooth="yes"/>
      <point x="39" y="618"/>
      <point x="100" y="703"/>
      <point x="203" y="703" type="curve" smooth="yes"/>
      <point x="297" y="703"/>
      <point x="354" y="637"/>
      <point x="351" y="546" type="curve" smooth="yes"/>
      <point x="350" y="506"/>
      <point x="339" y="450"/>
      <point x="274" y="405" type="curve"/>
      <point x="290" y="405" type="line" smooth="yes"/>
      <point x="363" y="405"/>
      <point x="412" y="358"/>
      <point x="412" y="254" type="curve" smooth="yes"/>
      <point x="412" y="169" type="line" smooth="yes"/>
      <point x="412" y="21"/>
      <point x="326" y="-10"/>
      <point x="197" y="-10" type="curve" smooth="yes"/>
      <point x="173" y="-10"/>
      <point x="129" y="-4"/>
      <point x="96" y="3" type="curve"/>
      <point x="96" y="-213" type="line"/>
      <point x="39" y="-189" type="line"/>
    </contour>
    <contour>
      <point x="96" y="529" type="curve" smooth="yes"/>
      <point x="96" y="385" type="line"/>
      <point x="172" y="403" type="line" smooth="yes"/>
      <point x="252" y="422"/>
      <point x="290" y="479"/>
      <point x="294" y="545" type="curve" smooth="yes"/>
      <point x="298" y="601"/>
      <point x="257" y="647"/>
      <point x="200" y="647" type="curve" smooth="yes"/>
      <point x="133" y="647"/>
      <point x="96" y="589"/>
    </contour>
    <contour>
      <point x="96" y="51" type="line"/>
      <point x="95" y="52"/>
      <point x="149" y="40"/>
      <point x="203" y="38" type="curve" smooth="yes"/>
      <point x="337" y="34"/>
      <point x="359" y="87"/>
      <point x="359" y="176" type="curve" smooth="yes"/>
      <point x="359" y="252" type="line" smooth="yes"/>
      <point x="359" y="343"/>
      <point x="301" y="357"/>
      <point x="263" y="357" type="curve" smooth="yes"/>
      <point x="229" y="357"/>
      <point x="180" y="350"/>
      <point x="147" y="342" type="curve" smooth="yes"/>
      <point x="96" y="329" type="line"/>
    </contour>
  </outline>
</glyph>
<glyph name="epsilon" format="1">
  <advance width="395"/>
  <unicode hex="03B5"/>
  <outline>
    <contour>
      <point x="301" y="443" type="line"/>
      <point x="246" y="461"/>
      <point x="211" y="461"/>
      <point x="179" y="457" type="curve" smooth="yes"/>
      <point x="128" y="450"/>
      <point x="105" y="415.667"/>
      <point x="105" y="381" type="curve" smooth="yes"/>
      <point x="105" y="338.501"/>
      <point x="138.229" y="300"/>
      <point x="182" y="300" type="curve" smooth="yes"/>
      <point x="301" y="300" type="line"/>
      <point x="281" y="246" type="line"/>
      <point x="183" y="246" type="line" smooth="yes"/>
      <point x="144.517" y="246"/>
      <point x="76" y="220.883"/>
      <point x="76" y="145" type="curve" smooth="yes"/>
      <point x="76" y="86.3333"/>
      <point x="129" y="42"/>
      <point x="212" y="42" type="curve" smooth="yes"/>
      <point x="258" y="42"/>
      <point x="306.406" y="55.7774"/>
      <point x="355" y="74" type="curve"/>
      <point x="371" y="23" type="line"/>
      <point x="324.333" y="1.66667"/>
      <point x="260.667" y="-11"/>
      <point x="202" y="-11" type="curve" smooth="yes"/>
      <point x="76.6167" y="-11"/>
      <point x="20" y="65.85"/>
      <point x="20" y="148" type="curve" smooth="yes"/>
      <point x="20" y="202.667"/>
      <point x="52" y="256.667"/>
      <point x="104" y="278" type="curve"/>
      <point x="70.906" y="296.615"/>
      <point x="47" y="336"/>
      <point x="47" y="378" type="curve" smooth="yes"/>
      <point x="47" y="441"/>
      <point x="93.8333" y="509"/>
      <point x="201" y="509" type="curve" smooth="yes"/>
      <point x="230.333" y="509"/>
      <point x="263.667" y="505.667"/>
      <point x="301" y="495" type="curve"/>
    </contour>
  </outline>
</glyph>
<glyph name="eta" format="1">
  <advance width="443"/>
  <unicode hex="03B7"/>
  <outline>
    <contour>
      <point x="351" y="342" type="line" smooth="yes"/>
      <point x="351" y="432.833"/>
      <point x="285.167" y="458"/>
      <point x="221" y="458" type="curve" smooth="yes"/>
      <point x="175.667" y="458"/>
      <point x="135.333" y="446.667"/>
      <point x="94" y="424" type="curve"/>
      <point x="94" y="0" type="line"/>
      <point x="38" y="0" type="line"/>
      <point x="38" y="499" type="line"/>
      <point x="94" y="499" type="line"/>
      <point x="94" y="465" type="line"/>
      <point x="132.667" y="491.667"/>
      <point x="182.667" y="508"/>
      <point x="232" y="508" type="curve" smooth="yes"/>
      <point x="342.251" y="508"/>
      <point x="406" y="449.892"/>
      <point x="406" y="345" type="curve" smooth="yes"/>
      <point x="406" y="-209" type="line"/>
      <point x="351" y="-186" type="line"/>
    </contour>
  </outline>
</glyph>
<glyph name="theta" format="1">
  <advance width="441"/>
  <unicode hex="03B8"/>
  <outline>
    <contour>
      <point x="219" y="707" type="curve" smooth="yes"/>
      <point x="345.667" y="707"/>
      <point x="404" y="629.667"/>
      <point x="404" y="503" type="curve" smooth="yes"/>
      <point x="404" y="188" type="line" smooth="yes"/>
      <point x="404" y="58.6667"/>
      <point x="341.667" y="-6"/>
      <point x="219" y="-6" type="curve" smooth="yes"/>
      <point x="93.6667" y="-6"/>
      <point x="32" y="66.6667"/>
      <point x="32" y="188" type="curve" smooth="yes"/>
      <point x="32" y="310" type="line" smooth="yes"/>
      <point x="32" y="370"/>
      <point x="47.6667" y="417.667"/>
      <point x="77" y="451" type="curve"/>
      <point x="53.575" y="490.042"/>
      <point x="50" y="532.95"/>
      <point x="50" y="557" type="curve" smooth="yes"/>
      <point x="50" y="635.4"/>
      <point x="107.233" y="707"/>
    </contour>
    <contour>
      <point x="348" y="504" type="line" smooth="yes"/>
      <point x="348" y="612"/>
      <point x="296" y="654"/>
      <point x="220" y="654" type="curve" smooth="yes"/>
      <point x="145.783" y="654"/>
      <point x="108" y="608.85"/>
      <point x="108" y="555" type="curve" smooth="yes"/>
      <point x="108" y="538"/>
      <point x="104" y="471"/>
      <point x="177" y="428" type="curve" smooth="yes"/>
      <point x="213" y="408"/>
      <point x="267" y="393"/>
      <point x="348" y="393" type="curve"/>
    </contour>
    <contour>
      <point x="219" y="42" type="curve" smooth="yes"/>
      <point x="304.55" y="42"/>
      <point x="348" y="87.2333"/>
      <point x="348" y="175" type="curve" smooth="yes"/>
      <point x="348" y="348" type="line"/>
      <point x="228" y="342.667"/>
      <point x="155.667" y="370.667"/>
      <point x="113" y="408" type="curve"/>
      <point x="95.6667" y="384"/>
      <point x="88" y="351.333"/>
      <point x="88" y="310" type="curve" smooth="yes"/>
      <point x="88" y="175" type="line" smooth="yes"/>
      <point x="88" y="87.2333"/>
      <point x="141.117" y="42"/>
    </contour>
  </outline>
</glyph>
<glyph name="pi" format="1">
  <advance width="472"/>
  <unicode hex="03C0"/>
  <outline>
    <contour>
      <point x="413" y="69" type="line"/>
      <point x="415.667" y="50.3333"/>
      <point x="427" y="36.6667"/>
      <point x="443" y="26" type="curve"/>
      <point x="416" y="-6" type="line"/>
      <point x="416.222" y="-6.549"/>
      <point x="357.778" y="10.7843"/>
      <point x="358" y="78" type="curve" smooth="yes"/>
      <point x="359" y="452" type="line"/>
      <point x="94" y="452" type="line"/>
      <point x="94" y="0" type="line"/>
      <point x="38" y="0" type="line"/>
      <point x="38" y="498" type="line"/>
      <point x="413" y="498" type="line"/>
    </contour>
  </outline>
</glyph>
<glyph name="sigma1" format="1">
  <advance width="340"/>
  <unicode hex="03C2"/>
  <outline>
    <contour>
      <point x="80" y="284" type="line" smooth="yes"/>
      <point x="80" y="244"/>
      <point x="88.0397" y="218.045"/>
      <point x="129" y="182" type="curve" smooth="yes"/>
      <point x="204" y="116" type="line" smooth="yes"/>
      <point x="239.76" y="84.5316"/>
      <point x="285" y="50.7689"/>
      <point x="285" y="-15" type="curve" smooth="yes"/>
      <point x="285" y="-69.1914"/>
      <point x="248.349" y="-110.386"/>
      <point x="195" y="-142" type="curve"/>
      <point x="170" y="-108" type="line"/>
      <point x="205.163" y="-86.5118"/>
      <point x="235" y="-54.6739"/>
      <point x="235" y="-22" type="curve" smooth="yes"/>
      <point x="235" y="14"/>
      <point x="222.095" y="30.9282"/>
      <point x="184" y="64" type="curve" smooth="yes"/>
      <point x="93" y="143" type="line" smooth="yes"/>
      <point x="40.0054" y="189.006"/>
      <point x="23" y="224.333"/>
      <point x="23" y="283" type="curve" smooth="yes"/>
      <point x="23" y="344.727" type="line" smooth="yes"/>
      <point x="23" y="452.084"/>
      <point x="97.3759" y="503"/>
      <point x="181" y="503" type="curve"/>
      <point x="260.25" y="504.417"/>
      <point x="313.25" y="467.583"/>
      <point x="313" y="469" type="curve"/>
      <point x="293" y="426" type="line"/>
      <point x="273.461" y="438"/>
      <point x="233.115" y="454"/>
      <point x="194" y="454" type="curve"/>
      <point x="131.956" y="458.003"/>
      <point x="80" y="425"/>
      <point x="80" y="352.305" type="curve" smooth="yes"/>
    </contour>
  </outline>
</glyph>
<glyph name="sigma" format="1">
  <advance width="468"/>
  <unicode hex="03C3"/>
  <outline>
    <contour>
      <point x="443" y="515" type="line"/>
      <point x="418.738" y="478.607"/>
      <point x="390.151" y="459.04"/>
      <point x="360" y="451" type="curve"/>
      <point x="378.667" y="429.667"/>
      <point x="397" y="392.333"/>
      <point x="397" y="319" type="curve" smooth="yes"/>
      <point x="397" y="184" type="line" smooth="yes"/>
      <point x="397" y="67.9269"/>
      <point x="336.721" y="-10"/>
      <point x="216" y="-10" type="curve" smooth="yes"/>
      <point x="91.5667" y="-10"/>
      <point x="28" y="76.2667"/>
      <point x="28" y="184" type="curve" smooth="yes"/>
      <point x="28" y="319" type="line"/>
      <point x="25.5" y="470.417"/>
      <point x="128" y="510"/>
      <point x="214" y="510" type="curve" smooth="yes"/>
      <point x="262" y="510"/>
      <point x="307" y="498"/>
      <point x="335" y="502" type="curve" smooth="yes"/>
      <point x="356.333" y="504.667"/>
      <point x="388.667" y="519.667"/>
      <point x="410" y="541" type="curve"/>
    </contour>
    <contour>
      <point x="340" y="333" type="line" smooth="yes"/>
      <point x="340" y="395.177"/>
      <point x="322.219" y="430.781"/>
      <point x="306" y="447" type="curve"/>
      <point x="278" y="449.667"/>
      <point x="244.667" y="457"/>
      <point x="214" y="457" type="curve" smooth="yes"/>
      <point x="155.883" y="457"/>
      <point x="87" y="428.183"/>
      <point x="87" y="326" type="curve" smooth="yes"/>
      <point x="87" y="174" type="line" smooth="yes"/>
      <point x="87" y="94.5667"/>
      <point x="137.533" y="40"/>
      <point x="217" y="40" type="curve" smooth="yes"/>
      <point x="300.35" y="40"/>
      <point x="340" y="92.3167"/>
      <point x="340" y="174" type="curve" smooth="yes"/>
    </contour>
  </outline>
</glyph>
<glyph name="tau" format="1">
  <advance width="350"/>
  <unicode hex="03C4"/>
  <outline>
    <contour>
      <point x="196" y="132" type="line" smooth="yes"/>
      <point x="196" y="78.8022"/>
      <point x="218.523" y="45.8097"/>
      <point x="262" y="30" type="curve"/>
      <point x="246" y="-13" type="line"/>
      <point x="171.333" y="8.33333"/>
      <point x="140" y="53.3333"/>
      <point x="140" y="132" type="curve" smooth="yes"/>
      <point x="140" y="446" type="line"/>
      <point x="20" y="446" type="line"/>
      <point x="20" y="498" type="line"/>
      <point x="323" y="498" type="line"/>
      <point x="323" y="446" type="line"/>
      <point x="196" y="446" type="line"/>
    </contour>
  </outline>
</glyph>
<glyph name="upsilon" format="1">
  <advance width="440"/>
  <unicode hex="03C5"/>
  <outline>
    <contour>
      <point x="404" y="184" type="line" smooth="yes"/>
      <point x="404" y="67"/>
      <point x="343" y="-10"/>
      <point x="222" y="-10" type="curve" smooth="yes"/>
      <point x="97.5667" y="-10"/>
      <point x="34" y="76.2667"/>
      <point x="34" y="184" type="curve" smooth="yes"/>
      <point x="34" y="499" type="line"/>
      <point x="91" y="499" type="line"/>
      <point x="91" y="174" type="line" smooth="yes"/>
      <point x="91" y="94.5667"/>
      <point x="143.883" y="40"/>
      <point x="224" y="40" type="curve" smooth="yes"/>
      <point x="308" y="40"/>
      <point x="350" y="92.3167"/>
      <point x="350" y="174" type="curve" smooth="yes"/>
      <point x="350" y="499" type="line"/>
      <point x="404" y="499" type="line"/>
    </contour>
  </outline>
</glyph>
<glyph name="omega" format="1">
  <advance width="594"/>
  <unicode hex="03C9"/>
  <outline>
    <contour>
      <point x="455" y="497" type="line"/>
      <point x="525.667" y="471"/>
      <point x="561" y="410.333"/>
      <point x="561" y="315" type="curve" smooth="yes"/>
      <point x="561" y="186" type="line" smooth="yes"/>
      <point x="561" y="54"/>
      <point x="508.667" y="-13"/>
      <point x="402" y="-13" type="curve" smooth="yes"/>
      <point x="354.714" y="-13"/>
      <point x="318.671" y="4.53918"/>
      <point x="297" y="40" type="curve"/>
      <point x="273.314" y="4.47126"/>
      <point x="236.849" y="-13"/>
      <point x="192" y="-13" type="curve" smooth="yes"/>
      <point x="85.3333" y="-13"/>
      <point x="30" y="54"/>
      <point x="30" y="186" type="curve" smooth="yes"/>
      <point x="30" y="315" type="line" smooth="yes"/>
      <point x="30" y="409.667"/>
      <point x="67" y="471.667"/>
      <point x="139" y="497" type="curve"/>
      <point x="170" y="453" type="line"/>
      <point x="115.333" y="437"/>
      <point x="86" y="394.667"/>
      <point x="86" y="324" type="curve" smooth="yes"/>
      <point x="86" y="176" type="line" smooth="yes"/>
      <point x="86" y="84"/>
      <point x="132" y="40"/>
      <point x="188" y="40" type="curve" smooth="yes"/>
      <point x="245.333" y="40"/>
      <point x="265" y="77.3333"/>
      <point x="269" y="156" type="curve"/>
      <point x="269" y="296" type="line"/>
      <point x="326" y="296" type="line"/>
      <point x="326" y="156" type="line" smooth="yes"/>
      <point x="326" y="77.3333"/>
      <point x="348" y="40"/>
      <point x="404" y="40" type="curve" smooth="yes"/>
      <point x="461.333" y="40"/>
      <point x="505" y="84"/>
      <point x="505" y="176" type="curve" smooth="yes"/>
      <point x="505" y="324" type="line" smooth="yes"/>
      <point x="505" y="394.667"/>
      <point x="477.667" y="437"/>
      <point x="423" y="453" type="curve"/>
    </contour>
  </outline>
</glyph>
<glyph name="quoteleft" format="1">
  <advance width="127"/>
  <unicode hex="2018"/>
  <outline>
    <contour>
      <point x="97" y="700" type="line"/>
      <point x="75.6667" y="673.333"/>
      <point x="67.6667" y="646.333"/>
      <point x="65" y="625" type="curve"/>
      <point x="82.3333" y="621"/>
      <point x="94" y="608"/>
      <point x="94" y="592" type="curve" smooth="yes"/>
      <point x="94" y="573.333"/>
      <point x="78.6667" y="559"/>
      <point x="60" y="559" type="curve" smooth="yes"/>
      <point x="42.6667" y="559"/>
      <point x="27" y="572"/>
      <point x="27" y="592" type="curve" smooth="yes"/>
      <point x="27" y="655.027"/>
      <point x="60.6542" y="693.654"/>
      <point x="79" y="712" type="curve"/>
    </contour>
  </outline>
</glyph>
<glyph name="quoteright" format="1">
  <advance width="128"/>
  <unicode hex="2019"/>
  <outline>
    <contour>
      <point x="29" y="557" type="line"/>
      <point x="50.3333" y="583.667"/>
      <point x="58.6667" y="609.667"/>
      <point x="60" y="631" type="curve"/>
      <point x="45.3333" y="635"/>
      <point x="33" y="648"/>
      <point x="33" y="664" type="curve" smooth="yes"/>
      <point x="33" y="682.667"/>
      <point x="48.6667" y="698"/>
      <point x="66" y="698" type="curve" smooth="yes"/>
      <point x="84.6667" y="698"/>
      <point x="100" y="684"/>
      <point x="100" y="664" type="curve" smooth="yes"/>
      <point x="100" y="603.174"/>
      <point x="67.5768" y="562.005"/>
      <point x="47" y="544" type="curve"/>
    </contour>
  </outline>
</glyph>
<glyph name="quotesinglbase" format="1">
  <advance width="139"/>
  <unicode hex="201A"/>
  <outline>
    <contour>
      <point x="34" y="-65" type="line"/>
      <point x="54" y="-38.3333"/>
      <point x="62.6667" y="-11.3333"/>
      <point x="64" y="10" type="curve"/>
      <point x="49.3333" y="12.6667"/>
      <point x="37" y="25.6667"/>
      <point x="37" y="43" type="curve" smooth="yes"/>
      <point x="37" y="61.6667"/>
      <point x="52.6667" y="76"/>
      <point x="70" y="76" type="curve" smooth="yes"/>
      <point x="88.6667" y="76"/>
      <point x="102.667" y="63"/>
      <point x="104" y="43" type="curve"/>
      <point x="104" y="-19.7073"/>
      <point x="70.5601" y="-59.8849"/>
      <point x="51" y="-77" type="curve"/>
    </contour>
  </outline>
</glyph>
<glyph name="quotedblleft" format="1">
  <advance width="306"/>
  <unicode hex="201C"/>
  <outline>
    <contour>
      <point x="276" y="700" type="line"/>
      <point x="254.667" y="673.333"/>
      <point x="248" y="646.333"/>
      <point x="244" y="625" type="curve"/>
      <point x="261.333" y="621"/>
      <point x="273" y="608"/>
      <point x="273" y="592" type="curve" smooth="yes"/>
      <point x="273" y="573.333"/>
      <point x="257.667" y="559"/>
      <point x="239" y="559" type="curve" smooth="yes"/>
      <point x="221.667" y="559"/>
      <point x="206" y="572"/>
      <point x="206" y="592" type="curve" smooth="yes"/>
      <point x="206" y="655.595"/>
      <point x="239.913" y="692.913"/>
      <point x="259" y="712" type="curve"/>
    </contour>
    <contour>
      <point x="97" y="700" type="line"/>
      <point x="75.6667" y="673.333"/>
      <point x="67.6667" y="646.333"/>
      <point x="65" y="625" type="curve"/>
      <point x="82.3333" y="621"/>
      <point x="94" y="608"/>
      <point x="94" y="592" type="curve" smooth="yes"/>
      <point x="94" y="573.333"/>
      <point x="78.6667" y="559"/>
      <point x="60" y="559" type="curve" smooth="yes"/>
      <point x="42.6667" y="559"/>
      <point x="27" y="572"/>
      <point x="27" y="592" type="curve" smooth="yes"/>
      <point x="27" y="655.027"/>
      <point x="60.6542" y="693.654"/>
      <point x="79" y="712" type="curve"/>
    </contour>
  </outline>
</glyph>
<glyph name="bullet" format="1">
  <advance width="342"/>
  <unicode hex="2022"/>
  <outline>
    <contour>
      <point x="268" y="435" type="curve" smooth="yes"/>
      <point x="296" y="407"/>
      <point x="310" y="373.667"/>
      <point x="310" y="335" type="curve" smooth="yes"/>
      <point x="310" y="297.667"/>
      <point x="296" y="263.667"/>
      <point x="268" y="237" type="curve"/>
      <point x="241.333" y="209"/>
      <point x="208.333" y="195"/>
      <point x="169" y="195" type="curve" smooth="yes"/>
      <point x="131" y="195"/>
      <point x="98" y="209"/>
      <point x="70" y="237" type="curve" smooth="yes"/>
      <point x="42.6667" y="263.667"/>
      <point x="29" y="296.333"/>
      <point x="29" y="335" type="curve" smooth="yes"/>
      <point x="29" y="374.333"/>
      <point x="42.6667" y="407.667"/>
      <point x="70" y="435" type="curve" smooth="yes"/>
      <point x="98.6667" y="462.333"/>
      <point x="131.667" y="476"/>
      <point x="169" y="476" type="curve" smooth="yes"/>
      <point x="207.667" y="476"/>
      <point x="240.667" y="462.333"/>
    </contour>
  </outline>
</glyph>
<glyph name="perthousand" format="1">
  <advance width="1055"/>
  <unicode hex="2030"/>
  <outline>
    <contour>
      <point x="49" y="0" type="line"/>
      <point x="586" y="698" type="line"/>
      <point x="650" y="698" type="line"/>
      <point x="117" y="0" type="line"/>
    </contour>
    <contour>
      <point x="175" y="712" type="curve" smooth="yes"/>
      <point x="253.667" y="712"/>
      <point x="320" y="647.583"/>
      <point x="320" y="566" type="curve" smooth="yes"/>
      <point x="320" y="485.983"/>
      <point x="253.667" y="421"/>
      <point x="175" y="421" type="curve" smooth="yes"/>
      <point x="94.3167" y="421"/>
      <point x="29" y="485.983"/>
      <point x="29" y="566" type="curve" smooth="yes"/>
      <point x="29" y="647.583"/>
      <point x="94.3167" y="712"/>
    </contour>
    <contour>
      <point x="175" y="661" type="curve" smooth="yes"/>
      <point x="122.017" y="661"/>
      <point x="80" y="617.633"/>
      <point x="80" y="566" type="curve" smooth="yes"/>
      <point x="80" y="515.933"/>
      <point x="122.017" y="472"/>
      <point x="175" y="472" type="curve" smooth="yes"/>
      <point x="226.65" y="472"/>
      <point x="268" y="515.933"/>
      <point x="268" y="566" type="curve" smooth="yes"/>
      <point x="268" y="617.633"/>
      <point x="226.65" y="661"/>
    </contour>
    <contour>
      <point x="534" y="276" type="curve" smooth="yes"/>
      <point x="614.917" y="276"/>
      <point x="679" y="211.017"/>
      <point x="679" y="131" type="curve" smooth="yes"/>
      <point x="679" y="50.9833"/>
      <point x="614.917" y="-14"/>
      <point x="534" y="-14" type="curve" smooth="yes"/>
      <point x="453.983" y="-14"/>
      <point x="389" y="50.9833"/>
      <point x="389" y="131" type="curve" smooth="yes"/>
      <point x="389" y="211.017"/>
      <point x="453.983" y="276"/>
    </contour>
    <contour>
      <point x="534" y="226" type="curve" smooth="yes"/>
      <point x="483.933" y="226"/>
      <point x="440" y="184.883"/>
      <point x="440" y="131" type="curve" smooth="yes"/>
      <point x="440" y="78.6833"/>
      <point x="483.933" y="37"/>
      <point x="534" y="37" type="curve" smooth="yes"/>
      <point x="585.633" y="37"/>
      <point x="629" y="78.6833"/>
      <point x="629" y="131" type="curve" smooth="yes"/>
      <point x="629" y="184.883"/>
      <point x="585.633" y="226"/>
    </contour>
    <contour>
      <point x="880" y="276" type="curve" smooth="yes"/>
      <point x="960.017" y="276"/>
      <point x="1025" y="211.017"/>
      <point x="1025" y="131" type="curve" smooth="yes"/>
      <point x="1025" y="50.9833"/>
      <point x="960.017" y="-14"/>
      <point x="880" y="-14" type="curve" smooth="yes"/>
      <point x="799.983" y="-14"/>
      <point x="735" y="50.9833"/>
      <point x="735" y="131" type="curve" smooth="yes"/>
      <point x="735" y="211.017"/>
      <point x="799.983" y="276"/>
    </contour>
    <contour>
      <point x="880" y="226" type="curve" smooth="yes"/>
      <point x="827.017" y="226"/>
      <point x="785" y="184.883"/>
      <point x="785" y="131" type="curve" smooth="yes"/>
      <point x="785" y="78.6833"/>
      <point x="827.017" y="37"/>
      <point x="880" y="37" type="curve" smooth="yes"/>
      <point x="931.65" y="37"/>
      <point x="973" y="78.6833"/>
      <point x="973" y="131" type="curve" smooth="yes"/>
      <point x="973" y="184.883"/>
      <point x="931.65" y="226"/>
    </contour>
  </outline>
</glyph>
<glyph name="Euro" format="1">
  <advance width="422"/>
  <unicode hex="20AC"/>
  <outline>
    <component base="C"/>
    <contour>
      <point x="4" y="376" type="line"/>
      <point x="4" y="431" type="line"/>
      <point x="353" y="431" type="line"/>
      <point x="353" y="376" type="line"/>
    </contour>
    <contour>
      <point x="4" y="272" type="line"/>
      <point x="4" y="327" type="line"/>
      <point x="353" y="327" type="line"/>
      <point x="353" y="272" type="line"/>
    </contour>
  </outline>
</glyph>
<glyph name="fl" format="1">
  <advance width="369"/>
  <unicode hex="FB02"/>
  <outline>
    <contour>
      <point x="270" y="621" type="line"/>
      <point x="236.667" y="639.667"/>
      <point x="210.333" y="646"/>
      <point x="189" y="646" type="curve" smooth="yes"/>
      <point x="141.167" y="646"/>
      <point x="97" y="617.833"/>
      <point x="97" y="548" type="curve" smooth="yes"/>
      <point x="97" y="498" type="line"/>
      <point x="212" y="498" type="line"/>
      <point x="188" y="446" type="line"/>
      <point x="97" y="446" type="line"/>
      <point x="97" y="0" type="line"/>
      <point x="41" y="0" type="line"/>
      <point x="41" y="560" type="line"/>
      <point x="38.3401" y="647.777"/>
      <point x="108.436" y="705"/>
      <point x="192" y="705" type="curve" smooth="yes"/>
      <point x="236" y="705"/>
      <point x="284.333" y="690.667"/>
      <point x="327" y="656" type="curve"/>
      <point x="327" y="0" type="line"/>
      <point x="270" y="0" type="line"/>
    </contour>
  </outline>
</glyph>
<glyph name="ffl" format="1">
  <advance width="596"/>
  <unicode hex="FB04"/>
  <outline>
    <contour>
      <point x="498" y="627" type="line"/>
      <point x="444.667" y="653.667"/>
      <point x="404.667" y="650.667"/>
      <point x="378" y="636" type="curve" smooth="yes"/>
      <point x="344.667" y="618.667"/>
      <point x="328" y="591"/>
      <point x="328" y="555" type="curve" smooth="yes"/>
      <point x="328" y="498" type="line"/>
      <point x="442" y="498" type="line"/>
      <point x="418" y="446" type="line"/>
      <point x="328" y="446" type="line"/>
      <point x="328" y="0" type="line"/>
      <point x="268" y="0" type="line"/>
      <point x="268" y="559" type="line" smooth="yes"/>
      <point x="268" y="580.034"/>
      <point x="274.666" y="599.249"/>
      <point x="283" y="618" type="curve"/>
      <point x="253.667" y="636.667"/>
      <point x="226" y="647"/>
      <point x="201" y="650" type="curve" smooth="yes"/>
      <point x="139" y="657"/>
      <point x="95" y="627.142"/>
      <point x="95" y="548" type="curve" smooth="yes"/>
      <point x="95" y="498" type="line"/>
      <point x="209" y="498" type="line"/>
      <point x="186" y="446" type="line"/>
      <point x="95" y="446" type="line"/>
      <point x="95" y="0" type="line"/>
      <point x="39" y="0" type="line"/>
      <point x="39" y="559" type="line" smooth="yes"/>
      <point x="39" y="668.515"/>
      <point x="131.563" y="704"/>
      <point x="181" y="704" type="curve" smooth="yes"/>
      <point x="229" y="704"/>
      <point x="274.333" y="690"/>
      <point x="313" y="662" type="curve"/>
      <point x="339.667" y="688.667"/>
      <point x="379" y="703"/>
      <point x="427" y="703" type="curve" smooth="yes"/>
      <point x="475" y="703"/>
      <point x="514" y="690.667"/>
      <point x="554" y="664" type="curve"/>
      <point x="554" y="0" type="line"/>
      <point x="498" y="0" type="line"/>
    </contour>
  </outline>
</glyph>
<glyph name="commaturnedabovecomb" format="1">
  <advance width="266"/>
  <outline>
    <contour>
      <point x="168" y="716" type="line"/>
      <point x="146.667" y="690.667"/>
      <point x="140.667" y="662.333"/>
      <point x="138" y="641" type="curve"/>
      <point x="152.667" y="638.333"/>
      <point x="165" y="625.333"/>
      <point x="165" y="608" type="curve" smooth="yes"/>
      <point x="165" y="590.667"/>
      <point x="150.667" y="575"/>
      <point x="132" y="575" type="curve" smooth="yes"/>
      <point x="113.333" y="575"/>
      <point x="99.3333" y="588"/>
      <point x="98" y="608" type="curve"/>
      <point x="98" y="670.191"/>
      <point x="132.135" y="711.83"/>
      <point x="151" y="728" type="curve"/>
    </contour>
  </outline>
</glyph>
<glyph name="ft" format="1">
  <advance width="469"/>
  <outline>
    <contour>
      <point x="324" y="132" type="line" smooth="yes"/>
      <point x="324" y="78.6667"/>
      <point x="346" y="44.6667"/>
      <point x="390" y="30" type="curve"/>
      <point x="374" y="-13" type="line"/>
      <point x="299.333" y="8.33333"/>
      <point x="269" y="53.3333"/>
      <point x="269" y="132" type="curve" smooth="yes"/>
      <point x="269" y="621" type="line"/>
      <point x="238.333" y="642.333"/>
      <point x="209.333" y="646"/>
      <point x="188" y="646" type="curve" smooth="yes"/>
      <point x="139.483" y="646"/>
      <point x="97" y="617.833"/>
      <point x="97" y="548" type="curve" smooth="yes"/>
      <point x="97" y="498" type="line"/>
      <point x="210" y="498" type="line"/>
      <point x="186" y="446" type="line"/>
      <point x="97" y="446" type="line"/>
      <point x="97" y="0" type="line"/>
      <point x="78.3333" y="0"/>
      <point x="59.6667" y="0"/>
      <point x="41" y="0" type="curve"/>
      <point x="41" y="560" type="line"/>
      <point x="38.3364" y="647.9"/>
      <point x="107.309" y="704"/>
      <point x="191" y="704" type="curve" smooth="yes"/>
      <point x="235" y="704"/>
      <point x="282.333" y="688.667"/>
      <point x="325" y="654" type="curve"/>
      <point x="325" y="498" type="line"/>
      <point x="444" y="498" type="line"/>
      <point x="421" y="446" type="line"/>
      <point x="324" y="446" type="line"/>
    </contour>
  </outline>
</glyph>
<glyph name="lambda_lambda" format="1">
  <advance width="859"/>
  <outline>
    <contour>
      <point x="434" y="-1" type="line"/>
      <point x="379" y="-1" type="line"/>
      <point x="243" y="456" type="line"/>
      <point x="220" y="443"/>
      <point x="203" y="423"/>
      <point x="185" y="360" type="curve" smooth="yes"/>
      <point x="79" y="-1" type="line"/>
      <point x="23" y="-1" type="line"/>
      <point x="132" y="371" type="line" smooth="yes"/>
      <point x="149" y="429"/>
      <point x="169" y="484"/>
      <point x="226" y="506" type="curve"/>
      <point x="204" y="578" type="line" smooth="yes"/>
      <point x="191" y="621"/>
      <point x="161" y="654"/>
      <point x="108" y="654" type="curve"/>
      <point x="118" y="697" type="line"/>
      <point x="216" y="697"/>
      <point x="243" y="640"/>
      <point x="268" y="557" type="curve" smooth="yes"/>
    </contour>
    <contour>
      <point x="754" y="124" type="line" smooth="yes"/>
      <point x="761" y="102"/>
      <point x="784" y="38"/>
      <point x="842" y="20" type="curve"/>
      <point x="805" y="-11" type="line"/>
      <point x="745" y="4"/>
      <point x="724" y="40"/>
      <point x="702" y="112" type="curve" smooth="yes"/>
      <point x="599" y="456" type="line"/>
      <point x="576" y="443"/>
      <point x="559" y="423"/>
      <point x="541" y="360" type="curve" smooth="yes"/>
      <point x="435" y="-1" type="line"/>
      <point x="379" y="-1" type="line"/>
      <point x="488" y="371" type="line" smooth="yes"/>
      <point x="505" y="429"/>
      <point x="525" y="484"/>
      <point x="582" y="506" type="curve"/>
      <point x="560" y="578" type="line" smooth="yes"/>
      <point x="547" y="621"/>
      <point x="517" y="654"/>
      <point x="464" y="654" type="curve"/>
      <point x="474" y="697" type="line"/>
      <point x="572" y="697"/>
      <point x="599" y="640"/>
      <point x="624" y="557" type="curve" smooth="yes"/>
    </contour>
  </outline>
</glyph>
<glyph name="sigma_tau" format="1">
  <advance width="796"/>
  <outline>
    <contour>
      <point x="794" y="447" type="line"/>
      <point x="736" y="436"/>
      <point x="664" y="432"/>
      <point x="595" y="432" type="curve" smooth="yes"/>
      <point x="504" y="432"/>
      <point x="416" y="439"/>
      <point x="363" y="447" type="curve"/>
      <point x="381" y="427"/>
      <point x="398" y="394"/>
      <point x="398" y="320" type="curve" smooth="yes"/>
      <point x="398" y="185" type="line" smooth="yes"/>
      <point x="398" y="68"/>
      <point x="338" y="-10"/>
      <point x="218" y="-10" type="curve" smooth="yes"/>
      <point x="92" y="-10"/>
      <point x="28" y="77"/>
      <point x="28" y="185" type="curve" smooth="yes"/>
      <point x="28" y="320" type="line" smooth="yes"/>
      <point x="28" y="472"/>
      <point x="129" y="512"/>
      <point x="215" y="512" type="curve" smooth="yes"/>
      <point x="263" y="512"/>
      <point x="308" y="506"/>
      <point x="336" y="503" type="curve" smooth="yes"/>
      <point x="421" y="494"/>
      <point x="504" y="488"/>
      <point x="588" y="488" type="curve" smooth="yes"/>
      <point x="656" y="488"/>
      <point x="723" y="492"/>
      <point x="794" y="501" type="curve"/>
    </contour>
    <contour>
      <point x="341" y="334" type="line" smooth="yes"/>
      <point x="341" y="396"/>
      <point x="323" y="435"/>
      <point x="307" y="452" type="curve"/>
      <point x="279" y="454"/>
      <point x="245" y="459"/>
      <point x="219" y="459" type="curve" smooth="yes"/>
      <point x="157" y="459"/>
      <point x="87" y="429"/>
      <point x="87" y="327" type="curve" smooth="yes"/>
      <point x="87" y="175" type="line" smooth="yes"/>
      <point x="87" y="95"/>
      <point x="138" y="40"/>
      <point x="221" y="40" type="curve" smooth="yes"/>
      <point x="302" y="40"/>
      <point x="341" y="93"/>
      <point x="341" y="175" type="curve" smooth="yes"/>
    </contour>
    <contour>
      <point x="641" y="133" type="line" smooth="yes"/>
      <point x="641" y="79"/>
      <point x="664" y="46"/>
      <point x="707" y="30" type="curve"/>
      <point x="691" y="-13" type="line"/>
      <point x="617" y="9"/>
      <point x="585" y="54"/>
      <point x="585" y="133" type="curve" smooth="yes"/>
      <point x="585" y="447" type="line"/>
      <point x="641" y="447" type="line"/>
    </contour>
  </outline>
</glyph>
<glyph name="t_t" format="1">
  <advance width="392"/>
  <outline>
    <component base="t" xOffset="149.5"/>
    <contour>
      <point x="96.266" y="132.37" type="line" smooth="yes"/>
      <point x="96.266" y="79.2212"/>
      <point x="118.328" y="45.126"/>
      <point x="162.451" y="30.084" type="curve"/>
      <point x="145.403" y="-13.0364" type="line"/>
      <point x="72.1988" y="9.0252"/>
      <point x="40.1092" y="54.1512"/>
      <point x="40.1092" y="132.37" type="curve" smooth="yes"/>
      <point x="40.1092" y="699.954" type="line"/>
      <point x="96.266" y="699.954" type="line"/>
      <point x="96.266" y="500.397" type="line"/>
      <point x="202.563" y="500.397" type="line"/>
      <point x="202.563" y="448.252" type="line"/>
      <point x="96.266" y="448.252" type="line"/>
    </contour>
  </outline>
</glyph>
<glyph name="uni030C" format="1">
  <advance width="266"/>
  <outline>
    <contour>
      <point x="263" y="715" type="line"/>
      <point x="131" y="587" type="line"/>
      <point x="3" y="713" type="line"/>
      <point x="42" y="751" type="line"/>
      <point x="131" y="663" type="line"/>
      <point x="224" y="752" type="line"/>
    </contour>
  </outline>
</glyph>
<glyph name="uni0328" format="1">
  <advance width="266"/>
  <outline>
    <contour>
      <point x="161" y="11" type="line"/>
      <point x="161" y="2" type="line"/>
      <point x="90" y="-122" type="line" smooth="yes"/>
      <point x="77" y="-145"/>
      <point x="77" y="-164"/>
      <point x="86" y="-176" type="curve" smooth="yes"/>
      <point x="95" y="-188"/>
      <point x="115" y="-192"/>
      <point x="139" y="-184" type="curve"/>
      <point x="152" y="-179"/>
      <point x="165" y="-174"/>
      <point x="177" y="-170" type="curve" smooth="yes"/>
      <point x="189" y="-166"/>
      <point x="199" y="-162"/>
      <point x="208" y="-159" type="curve" smooth="yes"/>
      <point x="218" y="-156"/>
      <point x="227" y="-153"/>
      <point x="236" y="-150" type="curve"/>
      <point x="254" y="-189" type="line"/>
      <point x="254" y="-189"/>
      <point x="250" y="-191"/>
      <point x="241" y="-194" type="curve"/>
      <point x="223" y="-201"/>
      <point x="197" y="-210"/>
      <point x="174" y="-218" type="curve" smooth="yes"/>
      <point x="162" y="-222"/>
      <point x="154" y="-225"/>
      <point x="150" y="-226" type="curve" smooth="yes"/>
      <point x="106" y="-238"/>
      <point x="72" y="-227"/>
      <point x="54" y="-203" type="curve" smooth="yes"/>
      <point x="36" y="-180"/>
      <point x="33" y="-144"/>
      <point x="53" y="-108" type="curve" smooth="yes"/>
      <point x="117" y="3" type="line"/>
      <point x="117" y="8" type="line"/>
    </contour>
  </outline>
</glyph>
